<svg width="41" height="41" viewBox="0 0 41 41" fill="none" xmlns="http://www.w3.org/2000/svg">
<path d="M9.45508 11.1719L11.4766 19.1846L13.7764 11.1719H18.8887V32.5H15.1094V26.1865L15.2852 16.2109L12.4873 25.4688H10.4512L7.94629 16.6064L8.12207 26.1865V32.5H4.34277V11.1719H9.45508Z" fill="black"/>
<path d="M22.3311 32.5V11.1719H27.8535C28.8398 11.1719 29.7627 11.2939 30.6221 11.5381C31.4814 11.7725 32.2627 12.1094 32.9658 12.5488C33.5811 12.9102 34.1279 13.3545 34.6064 13.8818C35.0947 14.3994 35.5195 14.9658 35.8809 15.5811C36.3008 16.333 36.623 17.1631 36.8477 18.0713C37.082 18.9795 37.1992 19.9463 37.1992 20.9717V22.7295C37.1992 23.7158 37.0918 24.6484 36.877 25.5273C36.6621 26.4062 36.3594 27.2119 35.9688 27.9443C35.5977 28.5986 35.1631 29.2041 34.665 29.7607C34.167 30.3076 33.6201 30.7666 33.0244 31.1377C32.3311 31.5771 31.5645 31.9141 30.7246 32.1484C29.8945 32.3828 29.0059 32.5 28.0586 32.5H22.3311ZM26.4766 14.5117V29.1895H28.0586C28.5664 29.1895 29.04 29.126 29.4795 28.999C29.9189 28.8721 30.3193 28.6865 30.6807 28.4424C31.0518 28.1885 31.3838 27.8662 31.6768 27.4756C31.9795 27.0752 32.2383 26.6113 32.4531 26.084C32.6289 25.625 32.7607 25.1172 32.8486 24.5605C32.9463 23.9941 32.9951 23.3838 32.9951 22.7295V20.9424C32.9951 20.3271 32.9463 19.7461 32.8486 19.1992C32.7607 18.6426 32.6289 18.1348 32.4531 17.6758C32.2383 17.1289 31.9551 16.6406 31.6035 16.2109C31.2617 15.7812 30.8613 15.4297 30.4023 15.1562C30.0508 14.9512 29.6602 14.7949 29.2305 14.6875C28.8105 14.5703 28.3516 14.5117 27.8535 14.5117H26.4766Z" fill="black"/>
</svg>
