<svg width="20" height="20" viewBox="0 0 20 20" fill="none" xmlns="http://www.w3.org/2000/svg">
<path d="M10.3516 13.21H7.22754L6.55078 15.5H4.8418L8.08203 5.54688H9.53809L12.7236 15.5H11.0215L10.3516 13.21ZM7.64453 11.8018H9.94824L8.80664 7.86426L7.64453 11.8018Z" fill="black"/>
<path d="M11.9307 7.5V3.23438H13.2959C13.5029 3.23438 13.6973 3.25781 13.8789 3.30469C14.0605 3.34961 14.2178 3.41895 14.3506 3.5127C14.4834 3.60645 14.5869 3.72656 14.6611 3.87305C14.7373 4.01758 14.7754 4.18945 14.7754 4.38867C14.7734 4.50977 14.752 4.62305 14.7109 4.72852C14.6719 4.83203 14.6152 4.92383 14.541 5.00391C14.4883 5.0625 14.4287 5.11426 14.3623 5.15918C14.2979 5.20215 14.2227 5.24121 14.1367 5.27637V5.28223C14.2637 5.31543 14.3721 5.36426 14.4619 5.42871C14.5518 5.49121 14.627 5.5625 14.6875 5.64258C14.75 5.72852 14.7969 5.82422 14.8281 5.92969C14.8613 6.0332 14.8779 6.14258 14.8779 6.25781C14.8799 6.46094 14.8438 6.63965 14.7695 6.79395C14.6953 6.94824 14.5928 7.07715 14.4619 7.18066C14.3311 7.28613 14.1748 7.36621 13.9932 7.4209C13.8135 7.47363 13.6182 7.5 13.4072 7.5H11.9307ZM12.6396 5.57227V6.91992H13.4131C13.5244 6.91992 13.626 6.9043 13.7178 6.87305C13.8096 6.8418 13.8877 6.79883 13.9521 6.74414C14.0225 6.6875 14.0762 6.61816 14.1133 6.53613C14.1523 6.45215 14.1719 6.35938 14.1719 6.25781C14.1719 6.15039 14.1562 6.05566 14.125 5.97363C14.0938 5.88965 14.0469 5.81836 13.9844 5.75977C13.9219 5.70117 13.8457 5.65625 13.7559 5.625C13.666 5.5918 13.5635 5.57422 13.4482 5.57227H12.6396ZM12.6396 5.03613H13.3105C13.4258 5.03418 13.5312 5.01855 13.627 4.98926C13.7246 4.95996 13.8066 4.91699 13.873 4.86035C13.9336 4.80957 13.9814 4.74805 14.0166 4.67578C14.0518 4.60352 14.0693 4.52051 14.0693 4.42676C14.0693 4.32715 14.0527 4.24121 14.0195 4.16895C13.9883 4.09473 13.9434 4.03418 13.8848 3.9873C13.8184 3.92871 13.7354 3.88672 13.6357 3.86133C13.5361 3.83398 13.4258 3.81934 13.3047 3.81738H12.6396V5.03613Z" fill="black"/>
</svg>
