<svg width="20" height="20" viewBox="0 0 20 20" fill="none" xmlns="http://www.w3.org/2000/svg">
<path d="M12 13.885V14.885H8V13.885H12ZM14 11.885V7.88501C14 6.78044 13.1046 5.88501 12 5.88501H8C6.89543 5.88501 6 6.78044 6 7.88501V11.885C6 12.9896 6.89543 13.885 8 13.885V14.885C6.39489 14.885 5.08421 13.6245 5.00391 12.0393L5 11.885V7.88501C5 6.22816 6.34315 4.88501 8 4.88501H12L12.1543 4.88892C13.7394 4.96922 15 6.2799 15 7.88501V11.885L14.9961 12.0393C14.9184 13.5733 13.6883 14.8034 12.1543 14.8811L12 14.885V13.885C13.1046 13.885 14 12.9896 14 11.885Z" fill="black"/>
<path d="M12.6528 7.15774L10.7103 12.6123H9.28986L7.92114 9.29821H9.29188L9.97168 11.2096H10.0285L11.2856 7.15774H12.6528Z" fill="black"/>
</svg>
