<svg width="15" height="15" viewBox="0 0 15 15" fill="none" xmlns="http://www.w3.org/2000/svg">
<g clip-path="url(#clip0_39_200)">
<path d="M13.6726 3.56483C14.2249 3.56483 14.6726 4.01254 14.6726 4.56483C14.6726 5.11711 14.2249 5.56483 13.6726 5.56483L7.49976 5.56483C6.94747 5.56483 6.49976 5.11711 6.49976 4.56483C6.49976 4.01254 6.94747 3.56483 7.49976 3.56483L13.6726 3.56483Z" fill="black"/>
<path d="M13.6733 8.28241C14.2254 8.28268 14.6733 8.73029 14.6733 9.28241C14.6733 9.83454 14.2254 10.2821 13.6733 10.2824H1.32666C0.774375 10.2824 0.32666 9.8347 0.32666 9.28241C0.32666 8.73013 0.774375 8.28241 1.32666 8.28241H13.6733Z" fill="black"/>
<path d="M13.6733 13C14.2254 13.0003 14.6733 13.4479 14.6733 14C14.6733 14.5521 14.2254 14.9997 13.6733 15H1.32666C0.774375 15 0.32666 14.5523 0.32666 14C0.32666 13.4477 0.774375 13 1.32666 13H13.6733Z" fill="black"/>
<path d="M3.12187 1.57729L1.82241 6.54264H0.539551L2.42854 0.497866H3.22981L3.12187 1.57729ZM4.14732 6.54264L2.83956 1.57729L2.71916 0.497866H3.53288L5.43848 6.54264H4.14732ZM4.19299 4.28831V5.29715H1.46536V4.28831H4.19299Z" fill="black"/>
</g>
<defs>
<clipPath id="clip0_39_200">
<rect width="15" height="15" fill="white"/>
</clipPath>
</defs>
</svg>
