<svg width="26" height="21" viewBox="0 0 26 21" fill="none" xmlns="http://www.w3.org/2000/svg">
<path fill-rule="evenodd" clip-rule="evenodd" d="M25.6201 17.9827C25.6201 19.6395 24.277 20.9827 22.6201 20.9827H3C1.34315 20.9827 0 19.6395 0 17.9827V5.8811C0 4.30862 1.20984 3.01871 2.74947 2.89142C2.8048 1.33616 4.04399 0.0823957 5.59325 0.00390625L5.74754 0H10.9204C12.5374 0 13.8557 1.27936 13.9181 2.8811H22.6201C24.277 2.8811 25.6201 4.22425 25.6201 5.8811V17.9827ZM22.6201 19.4827C23.4485 19.4827 24.1201 18.8111 24.1201 17.9827V5.8811C24.1201 5.05268 23.4485 4.3811 22.6201 4.3811H13.9204H12.4204H4.24754H3C2.91396 4.3811 2.82962 4.38835 2.74754 4.40226C2.03932 4.52229 1.5 5.13871 1.5 5.8811V17.9827C1.5 18.8111 2.17157 19.4827 3 19.4827H22.6201ZM4.25219 2.8811C4.31279 2.10826 4.95913 1.5 5.74754 1.5H10.9204C11.7088 1.5 12.3551 2.10826 12.4158 2.8811H4.25219Z" fill="#CCCCCC"/>
</svg>
