<?xml version="1.0" encoding="UTF-8" standalone="no"?>
<svg
   width="24"
   height="24"
   viewBox="0 0 24 24"
   version="1.1"
   id="svg1"
   sodipodi:docname="highlight_icon.svg"
   inkscape:version="1.4.3 (0d15f75042, 2025-12-25)"
   xmlns:inkscape="http://www.inkscape.org/namespaces/inkscape"
   xmlns:sodipodi="http://sodipodi.sourceforge.net/DTD/sodipodi-0.dtd"
   xmlns="http://www.w3.org/2000/svg"
   xmlns:svg="http://www.w3.org/2000/svg">
  <defs
     id="defs1">
    <inkscape:path-effect
       effect="fillet_chamfer"
       id="path-effect3"
       is_visible="true"
       lpeversion="1"
       nodesatellites_param="F,0,0,1,0,0.3,0,1 @ F,0,0,1,0,0.3,0,1 @ F,0,0,1,0,0.3,0,1 @ F,0,0,1,0,0.3,0,1"
       radius="0.5"
       unit="px"
       method="auto"
       mode="F"
       chamfer_steps="1"
       flexible="false"
       use_knot_distance="true"
       apply_no_radius="true"
       apply_with_radius="true"
       only_selected="false"
       hide_knots="false" />
  </defs>
  <sodipodi:namedview
     id="namedview1"
     pagecolor="#505050"
     bordercolor="#eeeeee"
     borderopacity="1"
     inkscape:showpageshadow="0"
     inkscape:pageopacity="0"
     inkscape:pagecheckerboard="0"
     inkscape:deskcolor="#505050"
     inkscape:zoom="34.25"
     inkscape:cx="12"
     inkscape:cy="12"
     inkscape:window-width="1920"
     inkscape:window-height="1024"
     inkscape:window-x="0"
     inkscape:window-y="0"
     inkscape:window-maximized="1"
     inkscape:current-layer="svg1" />
  <path
     d="m 4.3,20 h 15.4 a 0.3,0.3 45 0 1 0.3,0.3 v 1.4 A 0.3,0.3 135 0 1 19.7,22 H 4.3 A 0.3,0.3 45 0 1 4,21.7 V 20.3 A 0.3,0.3 135 0 1 4.3,20 Z"
     id="path3"
     inkscape:path-effect="#path-effect3"
     inkscape:original-d="m 4,20 h 16 v 2 H 4 Z"
     style="fill:#ffffff;stroke:none" />
  <path
     id="path2"
     d="M 16.46875 2 A 0.999 0.999 0 0 0 15.763672 2.2871094 L 7.0957031 10.820312 A 1.01 1.01 0 0 0 6.8222656 11.308594 L 5.7988281 15.744141 L 4 18 L 6.828125 18 L 7.9707031 16.871094 L 11.558594 16.042969 C 11.738594 16.000969 11.903156 15.91025 12.035156 15.78125 L 20.701172 7.2460938 A 1 1 0 0 0 20.707031 5.8261719 L 17.171875 2.2929688 A 0.999 0.999 0 0 0 16.46875 2 z M 16.460938 4.4082031 L 18.580078 6.5273438 L 11.337891 13.658203 L 9.2167969 11.539062 L 16.460938 4.4082031 z "
     style="fill:#ffffff;stroke:none" />
</svg>
