<svg width="20" height="20" viewBox="0 0 20 20" fill="none" xmlns="http://www.w3.org/2000/svg">
<path d="M5.55127 6.2674C5.55127 6.11701 5.60107 5.99006 5.70068 5.88655C5.80029 5.78108 5.93896 5.72834 6.1167 5.72834C6.29248 5.72834 6.43018 5.7801 6.52979 5.88362C6.63135 5.98713 6.68213 6.11506 6.68213 6.2674C6.68213 6.41975 6.63037 6.5467 6.52686 6.64826C6.42529 6.74787 6.28857 6.79768 6.1167 6.79768C5.94287 6.79768 5.80518 6.7469 5.70361 6.64533C5.60205 6.54377 5.55127 6.4178 5.55127 6.2674Z" fill="white"/>
<path d="M5.55127 10.2674C5.55127 10.117 5.60107 9.99006 5.70068 9.88655C5.80029 9.78108 5.93896 9.72834 6.1167 9.72834C6.29248 9.72834 6.43018 9.7801 6.52979 9.88362C6.63135 9.98713 6.68213 10.1151 6.68213 10.2674C6.68213 10.4197 6.63037 10.5467 6.52686 10.6483C6.42529 10.7479 6.28857 10.7977 6.1167 10.7977C5.94287 10.7977 5.80518 10.7469 5.70361 10.6453C5.60205 10.5438 5.55127 10.4178 5.55127 10.2674Z" fill="white"/>
<path d="M5.55127 14.2674C5.55127 14.117 5.60107 13.9901 5.70068 13.8865C5.80029 13.7811 5.93896 13.7283 6.1167 13.7283C6.29248 13.7283 6.43018 13.7801 6.52979 13.8836C6.63135 13.9871 6.68213 14.1151 6.68213 14.2674C6.68213 14.4197 6.63037 14.5467 6.52686 14.6483C6.42529 14.7479 6.28857 14.7977 6.1167 14.7977C5.94287 14.7977 5.80518 14.7469 5.70361 14.6453C5.60205 14.5438 5.55127 14.4178 5.55127 14.2674Z" fill="white"/>
<path d="M15.9944 5.5378C16.4086 5.5378 16.7444 5.87358 16.7444 6.2878C16.7444 6.70201 16.4086 7.0378 15.9944 7.0378H8.43578C8.02156 7.0378 7.68578 6.70201 7.68578 6.2878C7.68578 5.87358 8.02156 5.5378 8.43578 5.5378H15.9944Z" fill="white"/>
<path d="M15.9944 9.45944C16.4086 9.45944 16.7444 9.79523 16.7444 10.2094C16.7444 10.6237 16.4086 10.9594 15.9944 10.9594H8.43578C8.02156 10.9594 7.68578 10.6237 7.68578 10.2094C7.68578 9.79523 8.02156 9.45944 8.43578 9.45944H15.9944Z" fill="white"/>
<path d="M15.9944 13.3811C16.4086 13.3811 16.7444 13.7169 16.7444 14.1311C16.7444 14.5453 16.4086 14.8811 15.9944 14.8811H8.43578C8.02156 14.8811 7.68578 14.5453 7.68578 14.1311C7.68578 13.7169 8.02156 13.3811 8.43578 13.3811H15.9944Z" fill="white"/>
</svg>
