<?xml version="1.0" encoding="UTF-8" standalone="no"?>
<svg
   width="48.658333mm"
   height="32.321678mm"
   viewBox="0 0 48.658333 32.321678"
   version="1.1"
   id="svg1"
   xmlns="http://www.w3.org/2000/svg">
  <defs id="defs1" />
  <g id="layer1" transform="translate(-141.71844,-8.8571884)">
    <g id="g15" fill="white">
      <path
         id="path11"
         style="font-size:76.0352px;font-family:BAYON;-inkscape-font-specification:BAYON;stroke-width:2.25515"
         d="m 179.85052,14.91149 -5.06099,0.02648 c -0.0705,0 -0.10557,0.03528 -0.10557,0.105755 l -0.053,18.591776 c 0,0.08809 0.0442,0.132054 0.13224,0.132054 l 4.84929,-0.02648 v 1.82e-4 c 1.06592,-0.01762 2.02185,-0.277522 2.86753,-0.779645 0.84568,-0.510932 1.52399,-1.193665 2.03492,-2.048158 0.50212,-0.863298 0.75316,-1.81462 0.75316,-2.854105 v -7.769791 c 0,-0.995436 -0.24679,-1.902795 -0.7401,-2.722048 -0.4845,-0.828062 -1.13621,-1.484382 -1.95546,-1.968886 -0.81044,-0.484505 -1.7178,-0.713561 -2.72205,-0.687134 z m 0,3.237398 c 0.5814,-0.01762 1.08348,0.189456 1.50632,0.621106 0.42284,0.42284 0.63417,0.920484 0.63417,1.49308 v 7.796094 c 0,0.651879 -0.22906,1.211404 -0.68714,1.678288 -0.45807,0.466888 -1.02185,0.700191 -1.69135,0.700191 h -1.6781 l 0.0265,-12.262274 z" />
      <path
         style="font-size:76.0352px;font-family:BAYON;-inkscape-font-specification:BAYON;stroke-width:2.25515"
         d="m 165.89035,33.767605 h -3.06559 q -0.10571,0 -0.10571,-0.132139 l 0.0529,-18.565326 q 0,-0.132137 0.10571,-0.132137 h 3.03916 q 0.10571,0 0.10571,0.132137 v 6.408672 l 4.24162,-6.435099 q 0.10571,-0.10571 0.1982,-0.10571 h 3.10524 q 0.11892,0 0.0529,0.10571 l -4.67767,7.465772 5.24586,11.152411 q 0.0661,0.105709 -0.13214,0.105709 h -3.30344 q -0.13214,0 -0.15856,-0.105709 l -3.66022,-7.954682 -0.93817,1.479939 v 6.448313 q 0,0.132139 -0.10571,0.132139 z"
         id="path12" />
      <path
         style="font-size:76.0352px;font-family:BAYON;-inkscape-font-specification:BAYON;stroke-width:2.25515"
         d="m 152.56558,33.767605 h -3.06559 q -0.10571,0 -0.10571,-0.132139 l 0.0529,-18.591753 q 0,-0.10571 0.10571,-0.10571 h 3.30344 q 0.10571,0 0.18499,0.10571 l 2.47097,3.567714 2.45776,-3.567714 q 0.0793,-0.10571 0.19821,-0.10571 h 3.31665 q 0.11892,0 0.11892,0.10571 l 0.0529,18.591753 q 0,0.132139 -0.10571,0.132139 h -3.06559 q -0.10571,0 -0.10571,-0.132139 l -0.0264,-13.808373 -2.84095,4.122692 -2.81453,-4.122692 -0.0264,13.808373 q 0,0.132139 -0.10572,0.132139 z"
         id="path13" />
      <path
         id="rect15"
         style="baseline-shift:baseline;display:inline;overflow:visible;opacity:1;vector-effect:none;stroke-linejoin:round;enable-background:accumulate"
         d="m 146.36461,8.857188 c -1.34979,0 -2.48202,1.1306669 -2.48202,2.480469 v 20.861776 a 5.3251419,5.3251419 0 0 1 1.80609,-0.315743 5.3251419,5.3251419 0 0 1 1.02785,0.09973 V 11.691124 h 40.828 V 37.01516 h -36.53421 a 5.3251419,5.3251419 0 0 1 0.004,0.193269 5.3251419,5.3251419 0 0 1 -0.6997,2.638599 h 37.58169 c 1.34979,0 2.48046,-1.130684 2.48046,-2.480469 V 11.337657 c 0,-1.3497861 -1.13067,-2.480469 -2.48046,-2.480469 z" />
      <circle
         style="fill:white;fill-opacity:1;stroke:none;stroke-width:2.28217;stroke-linejoin:round;stroke-dasharray:none;stroke-opacity:1"
         id="path15"
         cx="145.68864"
         cy="37.208652"
         r="3.9702148" />
    </g>
  </g>
</svg>
