<svg width="15" height="15" viewBox="0 0 15 15" fill="none" xmlns="http://www.w3.org/2000/svg">
<g clip-path="url(#clip0_60_3)">
<rect x="1.25" y="1.25" width="12.5" height="12.5" rx="2.25" stroke="#CCCCCC" stroke-width="1.5"/>
<path d="M3.72168 6.745L11.2881 6.745C11.7023 6.745 12.0381 7.08079 12.0381 7.495C12.0381 7.90921 11.7023 8.245 11.2881 8.245L3.72168 8.245C3.30767 8.24476 2.97168 7.90907 2.97168 7.495C2.97168 7.08093 3.30767 6.74524 3.72168 6.745Z" fill="#666666"/>
<path d="M6.7501 11.2834V3.71702C6.7501 3.3028 7.08589 2.96702 7.5001 2.96702C7.91431 2.96702 8.2501 3.3028 8.2501 3.71702V11.2834C8.24987 11.6974 7.91417 12.0334 7.5001 12.0334C7.08603 12.0334 6.75034 11.6974 6.7501 11.2834Z" fill="#666666"/>
</g>
<defs>
<clipPath id="clip0_60_3">
<rect width="15" height="15" fill="white"/>
</clipPath>
</defs>
</svg>
