<svg width="20" height="20" viewBox="0 0 20 20" fill="none" xmlns="http://www.w3.org/2000/svg">
<path d="M6.2085 7.5H5.65967V5.31836L4.94092 5.57617V5.10352L6.1792 4.65625H6.2085V7.5Z" fill="white"/>
<path d="M6.73779 11.5H4.79834V11.1289L5.71826 10.1406C5.78988 10.0625 5.85042 9.99154 5.8999 9.92773C5.94938 9.86393 5.98975 9.80534 6.021 9.75195C6.05094 9.69987 6.07243 9.65104 6.08545 9.60547C6.09977 9.5599 6.10693 9.51562 6.10693 9.47266C6.10693 9.40885 6.09782 9.35221 6.07959 9.30273C6.06136 9.25326 6.03597 9.21094 6.00342 9.17578C5.96956 9.14193 5.9292 9.11589 5.88232 9.09766C5.83675 9.07943 5.78597 9.07031 5.72998 9.07031C5.65706 9.07031 5.59261 9.08073 5.53662 9.10156C5.48193 9.12109 5.43636 9.15039 5.3999 9.18945C5.36214 9.22982 5.3335 9.27995 5.31396 9.33984C5.29443 9.39974 5.28467 9.4681 5.28467 9.54492H4.73975C4.73975 9.41862 4.76383 9.29948 4.81201 9.1875C4.86019 9.07422 4.92855 8.97526 5.01709 8.89062C5.10433 8.80599 5.2098 8.73958 5.3335 8.69141C5.4585 8.64193 5.59652 8.61719 5.74756 8.61719C5.89209 8.61719 6.01969 8.63737 6.13037 8.67773C6.24235 8.7181 6.3361 8.77474 6.41162 8.84766C6.48584 8.92057 6.54248 9.00846 6.58154 9.11133C6.62061 9.21289 6.64014 9.32552 6.64014 9.44922C6.64014 9.54297 6.62516 9.63281 6.59521 9.71875C6.56657 9.80339 6.52555 9.88737 6.47217 9.9707C6.41748 10.054 6.35238 10.1393 6.27686 10.2266C6.20133 10.3125 6.11735 10.403 6.0249 10.498L5.48975 11.0645H6.73779V11.5Z" fill="white"/>
<path d="M5.42529 13.8398H5.72021C5.79834 13.8398 5.8654 13.8294 5.92139 13.8086C5.97868 13.7865 6.0249 13.7559 6.06006 13.7168C6.09261 13.6829 6.1167 13.6419 6.13232 13.5938C6.14925 13.5443 6.15771 13.4909 6.15771 13.4336C6.15771 13.3776 6.14925 13.3268 6.13232 13.2812C6.1167 13.2344 6.09261 13.194 6.06006 13.1602C6.02751 13.1276 5.98584 13.1022 5.93506 13.084C5.88558 13.0658 5.82764 13.0566 5.76123 13.0566C5.70654 13.0566 5.65511 13.0645 5.60693 13.0801C5.56006 13.0957 5.51904 13.1178 5.48389 13.1465C5.44743 13.1764 5.41878 13.2122 5.39795 13.2539C5.37712 13.2956 5.3667 13.3424 5.3667 13.3945H4.82373C4.82373 13.2786 4.84717 13.1732 4.89404 13.0781C4.94222 12.9831 5.00798 12.901 5.09131 12.832C5.17464 12.7643 5.2723 12.7116 5.38428 12.6738C5.49756 12.6361 5.6193 12.6172 5.74951 12.6172C5.89014 12.6172 6.01904 12.6348 6.13623 12.6699C6.25342 12.7038 6.35368 12.7546 6.43701 12.8223C6.52035 12.8913 6.5848 12.9766 6.63037 13.0781C6.67725 13.1784 6.70068 13.2949 6.70068 13.4277C6.70068 13.4889 6.69157 13.5495 6.67334 13.6094C6.65511 13.668 6.62842 13.724 6.59326 13.7773C6.55811 13.8307 6.51449 13.8802 6.4624 13.9258C6.41032 13.9701 6.35042 14.0085 6.28271 14.041C6.36214 14.0697 6.4305 14.1061 6.48779 14.1504C6.54639 14.1947 6.59456 14.2448 6.63232 14.3008C6.67008 14.3581 6.69808 14.4206 6.71631 14.4883C6.73454 14.556 6.74365 14.6276 6.74365 14.7031C6.74365 14.8359 6.71826 14.9544 6.66748 15.0586C6.6167 15.1628 6.54704 15.25 6.4585 15.3203C6.36995 15.3919 6.26449 15.4466 6.14209 15.4844C6.021 15.5208 5.89014 15.5391 5.74951 15.5391C5.62842 15.5391 5.50993 15.5228 5.39404 15.4902C5.27946 15.4564 5.17725 15.4056 5.0874 15.3379C4.99756 15.2715 4.92529 15.1875 4.87061 15.0859C4.81722 14.9844 4.79053 14.8646 4.79053 14.7266H5.3335C5.3335 14.7812 5.34391 14.832 5.36475 14.8789C5.38558 14.9245 5.41553 14.9635 5.45459 14.9961C5.49235 15.0299 5.53727 15.0566 5.58936 15.0762C5.64144 15.0944 5.69873 15.1035 5.76123 15.1035C5.83154 15.1035 5.89469 15.0938 5.95068 15.0742C6.00667 15.0547 6.05355 15.026 6.09131 14.9883C6.12777 14.9544 6.15511 14.9128 6.17334 14.8633C6.19287 14.8138 6.20264 14.7585 6.20264 14.6973C6.20264 14.6204 6.19157 14.5547 6.16943 14.5C6.1473 14.4453 6.1154 14.4004 6.07373 14.3652C6.03076 14.3301 5.97933 14.304 5.91943 14.2871C5.86084 14.2702 5.79443 14.2617 5.72021 14.2617H5.42529V13.8398Z" fill="white"/>
<path d="M15.9944 5.5378C16.4086 5.5378 16.7444 5.87358 16.7444 6.2878C16.7444 6.70201 16.4086 7.0378 15.9944 7.0378H8.43579C8.02158 7.0378 7.68579 6.70201 7.68579 6.2878C7.68579 5.87358 8.02158 5.5378 8.43579 5.5378H15.9944Z" fill="white"/>
<path d="M15.9944 9.45944C16.4086 9.45944 16.7444 9.79523 16.7444 10.2094C16.7444 10.6237 16.4086 10.9594 15.9944 10.9594H8.43579C8.02158 10.9594 7.68579 10.6237 7.68579 10.2094C7.68579 9.79523 8.02158 9.45944 8.43579 9.45944H15.9944Z" fill="white"/>
<path d="M15.9944 13.3811C16.4086 13.3811 16.7444 13.7169 16.7444 14.1311C16.7444 14.5453 16.4086 14.8811 15.9944 14.8811H8.43579C8.02158 14.8811 7.68579 14.5453 7.68579 14.1311C7.68579 13.7169 8.02158 13.3811 8.43579 13.3811H15.9944Z" fill="white"/>
</svg>
