<?xml version="1.0" encoding="UTF-8" standalone="no"?>
<svg
   width="20"
   height="20"
   viewBox="0 0 20 20"
   fill="none"
   version="1.1"
   id="svg2"
   sodipodi:docname="Sobrescrito_icon.svg"
   inkscape:version="1.4.3 (0d15f75042, 2025-12-25)"
   xmlns:inkscape="http://www.inkscape.org/namespaces/inkscape"
   xmlns:sodipodi="http://sodipodi.sourceforge.net/DTD/sodipodi-0.dtd"
   xmlns="http://www.w3.org/2000/svg"
   xmlns:svg="http://www.w3.org/2000/svg">
  <defs
     id="defs2">
    <inkscape:path-effect
       effect="fillet_chamfer"
       id="path-effect3"
       is_visible="true"
       lpeversion="1"
       nodesatellites_param="F,0,0,1,0,0,0,1 @ F,0,0,1,0,0,0,1 @ F,0,0,1,0,0,0,1 @ F,0,0,1,0,0,0,1 @ F,0,0,1,0,0,0,1 @ F,0,0,1,0,0,0,1 @ F,0,0,1,0,0,0,1 @ F,0,0,1,0,0,0,1 | F,0,0,1,0,0,0,1 @ F,0,0,1,0,0,0,1 @ F,0,0,1,0,0,0,1"
       radius="0"
       unit="px"
       method="auto"
       mode="F"
       chamfer_steps="1"
       flexible="false"
       use_knot_distance="true"
       apply_no_radius="true"
       apply_with_radius="true"
       only_selected="false"
       hide_knots="false" />
    <inkscape:path-effect
       effect="fillet_chamfer"
       id="path-effect2"
       is_visible="true"
       lpeversion="1"
       nodesatellites_param="F,0,0,1,0,0.5,0,1 @ F,0,0,1,0,0.5,0,1 @ F,0,0,1,0,0.5,0,1 @ F,0,0,1,0,0.5,0,1 @ F,0,0,1,0,0.5,0,1 @ F,0,0,1,0,0.5,0,1 @ F,0,0,1,0,0.5,0,1 @ F,0,0,1,0,0.5,0,1 | F,0,0,1,0,0.5,0,1 @ F,0,0,1,0,0.5,0,1 @ F,0,0,1,0,0.5,0,1"
       radius="0.3"
       unit="px"
       method="auto"
       mode="F"
       chamfer_steps="1"
       flexible="false"
       use_knot_distance="true"
       apply_no_radius="true"
       apply_with_radius="true"
       only_selected="false"
       hide_knots="false" />
  </defs>
  <sodipodi:namedview
     id="namedview2"
     pagecolor="#505050"
     bordercolor="#eeeeee"
     borderopacity="1"
     inkscape:showpageshadow="0"
     inkscape:pageopacity="0"
     inkscape:pagecheckerboard="0"
     inkscape:deskcolor="#505050"
     inkscape:zoom="35.460191"
     inkscape:cx="11.590462"
     inkscape:cy="9.503615"
     inkscape:window-width="1920"
     inkscape:window-height="1024"
     inkscape:window-x="0"
     inkscape:window-y="0"
     inkscape:window-maximized="1"
     inkscape:current-layer="svg2" />
  <path
     d="m 9.8516,13.21 -2.12406,0 A 0.66914146,0.66914146 143.23195 0 0 7.0858344,13.689499 L 6.6924856,15.020501 A 0.66914146,0.66914146 143.23195 0 1 6.05078,15.5 H 5.3418 A 0.36305387,0.36305387 54.016308 0 1 4.9965792,15.02456 L 7.9272508,6.0223202 A 0.68860304,0.68860304 144.01631 0 1 8.58203,5.54688 h 0.45606 a 0.68500972,0.68500972 36.126328 0 1 0.6524101,0.476205 l 2.8806899,9.00071 A 0.36495832,0.36495832 126.12633 0 1 12.2236,15.5 H 11.5215 A 0.66722113,0.66722113 36.847037 0 1 10.881117,15.020112 L 10.491983,13.689888 A 0.66722113,0.66722113 36.847037 0 0 9.8516,13.21 Z M 8.14453,11.8018 H 9.44824 A 0.37562687,0.37562687 126.91584 0 0 9.80901,11.321576 L 8.94587,8.3444839 A 0.1462649,0.1462649 0.13745893 0 0 8.6651074,8.3438103 L 7.7860626,11.32225 A 0.37375368,0.37375368 53.221615 0 0 8.14453,11.8018 Z"
     fill="#000000"
     id="path1"
     inkscape:path-effect="#path-effect2"
     inkscape:original-d="M 10.3516,13.21 H 7.22754 L 6.55078,15.5 H 4.8418 L 8.08203,5.54688 H 9.53809 L 12.7236,15.5 H 11.0215 Z M 7.64453,11.8018 H 9.94824 L 8.80664,7.86426 Z"
     style="fill:#ffffff" />
  <path
     d="M 11.9307,8.2232309 V 3.23438 h 1.596669 c 0.242095,0 0.469456,0.027403 0.681845,0.082232 0.212391,0.052536 0.396361,0.1336327 0.551677,0.2432778 0.155317,0.1096452 0.276365,0.2501197 0.363145,0.4214469 0.0891,0.1690349 0.13368,0.3700453 0.13368,0.6030428 -0.0025,0.1416324 -0.02735,0.2741189 -0.07544,0.3974712 -0.0456,0.12106 -0.111928,0.2284246 -0.198706,0.322082 -0.06164,0.068524 -0.13134,0.1290597 -0.208999,0.1815959 -0.07533,0.050256 -0.163269,0.095937 -0.263851,0.1370595 v 0.00686 c 0.148533,0.038827 0.275313,0.095937 0.380337,0.1713154 0.10514,0.073098 0.193093,0.156474 0.263851,0.2501315 0.07309,0.1005119 0.127949,0.212437 0.164439,0.3357892 0.03884,0.12106 0.05825,0.2489851 0.05825,0.3837523 0.0025,0.2375705 -0.03989,0.4465805 -0.126779,0.627042 -0.08679,0.1804497 -0.206659,0.3312161 -0.359754,0.4522761 -0.152976,0.1233524 -0.335777,0.2170098 -0.548167,0.2809724 -0.210167,0.06167 -0.43858,0.092511 -0.685355,0.092511 z M 12.869469,6.0583904 V 7.455065 h 0.793919 c 0.114237,0 0.218519,-0.016189 0.312743,-0.048574 0.09422,-0.032386 0.174385,-0.076919 0.240485,-0.1335997 0.07226,-0.058701 0.127377,-0.1305627 0.165454,-0.2155769 0.04002,-0.087034 0.06015,-0.1831798 0.06015,-0.2884448 0,-0.1113276 -0.0161,-0.2095037 -0.04814,-0.2945178 -0.03203,-0.087034 -0.08016,-0.1609184 -0.144311,-0.2216398 -0.06414,-0.060731 -0.142361,-0.1072858 -0.234533,-0.1396726 -0.09227,-0.034406 -0.197478,-0.052627 -0.315822,-0.054648 z m -0.02991,-0.8264505 h 0.709791 c 0.121983,-0.00195 0.233493,-0.017397 0.334845,-0.046381 0.103261,-0.028994 0.190012,-0.071516 0.260262,-0.1275654 0.06413,-0.050251 0.114684,-0.1111286 0.151923,-0.1826448 0.03722,-0.071507 0.05576,-0.1536505 0.05576,-0.2464228 0,-0.098571 -0.01755,-0.1836145 -0.05268,-0.2551208 -0.03301,-0.073445 -0.08051,-0.1333642 -0.142509,-0.1797552 -0.07024,-0.057979 -0.15806,-0.099531 -0.263539,-0.124656 -0.105376,-0.027065 -0.222069,-0.041554 -0.350189,-0.043491 h -0.703656 z"
     fill="#000000"
     id="path2"
     style="stroke-width:1.16956;fill:#ffffff"
     sodipodi:nodetypes="ccscsccccccccccccccccccssccsccccccccccscccccc" />
</svg>
