<svg width="20" height="20" viewBox="0 0 20 20" fill="none" xmlns="http://www.w3.org/2000/svg">
<path d="M9.35156 13.21H6.22754L5.55078 15.5H3.8418L7.08203 5.54688H8.53809L11.7236 15.5H10.0215L9.35156 13.21ZM6.64453 11.8018H8.94824L7.80664 7.86426L6.64453 11.8018Z" fill="white"/>
<path d="M12.9307 17.5V13.2344H14.2959C14.5029 13.2344 14.6973 13.2578 14.8789 13.3047C15.0605 13.3496 15.2178 13.4189 15.3506 13.5127C15.4834 13.6064 15.5869 13.7266 15.6611 13.873C15.7373 14.0176 15.7754 14.1895 15.7754 14.3887C15.7734 14.5098 15.752 14.623 15.7109 14.7285C15.6719 14.832 15.6152 14.9238 15.541 15.0039C15.4883 15.0625 15.4287 15.1143 15.3623 15.1592C15.2979 15.2021 15.2227 15.2412 15.1367 15.2764V15.2822C15.2637 15.3154 15.3721 15.3643 15.4619 15.4287C15.5518 15.4912 15.627 15.5625 15.6875 15.6426C15.75 15.7285 15.7969 15.8242 15.8281 15.9297C15.8613 16.0332 15.8779 16.1426 15.8779 16.2578C15.8799 16.4609 15.8438 16.6396 15.7695 16.7939C15.6953 16.9482 15.5928 17.0771 15.4619 17.1807C15.3311 17.2861 15.1748 17.3662 14.9932 17.4209C14.8135 17.4736 14.6182 17.5 14.4072 17.5H12.9307ZM13.6396 15.5723V16.9199H14.4131C14.5244 16.9199 14.626 16.9043 14.7178 16.873C14.8096 16.8418 14.8877 16.7988 14.9521 16.7441C15.0225 16.6875 15.0762 16.6182 15.1133 16.5361C15.1523 16.4521 15.1719 16.3594 15.1719 16.2578C15.1719 16.1504 15.1562 16.0557 15.125 15.9736C15.0938 15.8896 15.0469 15.8184 14.9844 15.7598C14.9219 15.7012 14.8457 15.6562 14.7559 15.625C14.666 15.5918 14.5635 15.5742 14.4482 15.5723H13.6396ZM13.6396 15.0361H14.3105C14.4258 15.0342 14.5312 15.0186 14.627 14.9893C14.7246 14.96 14.8066 14.917 14.873 14.8604C14.9336 14.8096 14.9814 14.748 15.0166 14.6758C15.0518 14.6035 15.0693 14.5205 15.0693 14.4268C15.0693 14.3271 15.0527 14.2412 15.0195 14.1689C14.9883 14.0947 14.9434 14.0342 14.8848 13.9873C14.8184 13.9287 14.7354 13.8867 14.6357 13.8613C14.5361 13.834 14.4258 13.8193 14.3047 13.8174H13.6396V15.0361Z" fill="white"/>
</svg>
