<?xml version="1.0" encoding="UTF-8" standalone="no"?>
<svg
   width="20"
   height="20"
   viewBox="0 0 20 20"
   fill="none"
   version="1.1"
   id="svg6"
   sodipodi:docname="Table _icon.svg"
   inkscape:version="1.4.3 (0d15f75042, 2025-12-25)"
   xmlns:inkscape="http://www.inkscape.org/namespaces/inkscape"
   xmlns:sodipodi="http://sodipodi.sourceforge.net/DTD/sodipodi-0.dtd"
   xmlns="http://www.w3.org/2000/svg"
   xmlns:svg="http://www.w3.org/2000/svg">
  <sodipodi:namedview
     id="namedview6"
     pagecolor="#505050"
     bordercolor="#eeeeee"
     borderopacity="1"
     inkscape:showpageshadow="0"
     inkscape:pageopacity="0"
     inkscape:pagecheckerboard="0"
     inkscape:deskcolor="#505050"
     inkscape:zoom="37.666652"
     inkscape:cx="11.28319"
     inkscape:cy="9.955756"
     inkscape:window-width="1920"
     inkscape:window-height="1024"
     inkscape:window-x="0"
     inkscape:window-y="0"
     inkscape:window-maximized="1"
     inkscape:current-layer="g6" />
  <g
     id="g6"
     transform="translate(-0.30483884,-0.0108252)">
    <path
       d="M 16.606356,7.0385105 V 7.9515939 H 4.0033039 V 7.0385105 Z"
       fill="#000000"
       id="path2"
       style="stroke-width:0.913083;fill:#ffffff" />
    <path
       d="m 16.606356,12.013542 v 0.913083 H 4.0033039 v -0.913083 z"
       fill="#000000"
       id="path3"
       style="stroke-width:0.913083;fill:#ffffff" />
    <path
       d="M 7.3424836,3.7092944 H 8.2555669 V 16.312356 H 7.3424836 Z"
       fill="#000000"
       id="path4"
       style="stroke-width:0.913083;fill:#ffffff" />
    <path
       d="m 12.317542,3.7092944 h 0.913084 V 16.312356 h -0.913084 z"
       fill="#000000"
       id="path5"
       style="stroke-width:0.913083;fill:#ffffff" />
  </g>
  <path
     d="m 18.7063,19 -1.299,-2.25 h 2.598 z"
     fill="#000000"
     id="path6"
     style="fill:#ffffff" />
  <defs
     id="defs6" />
  <path
     id="path1"
     style="fill:#ffffff;stroke-width:0;stroke-dasharray:none"
     sodipodi:type="inkscape:offset"
     inkscape:radius="0.23995386"
     inkscape:original="M 5.5 2.5 C 3.84315 2.5 2.5 3.84315 2.5 5.5 L 2.5 14.5 L 2.5039062 14.654297 C 2.5816262 16.188297 3.8116631 17.418394 5.3457031 17.496094 L 5.5 17.5 L 14.5 17.5 L 14.654297 17.496094 C 16.239397 17.415794 17.5 16.1051 17.5 14.5 L 17.5 5.5 C 17.5 3.84315 16.1569 2.5 14.5 2.5 L 5.5 2.5 z M 5.5 3.5 L 14.5 3.5 C 15.6046 3.5 16.5 4.39543 16.5 5.5 L 16.5 14.5 C 16.5 15.6046 15.6046 16.5 14.5 16.5 L 5.5 16.5 C 4.39543 16.5 3.5 15.6046 3.5 14.5 L 3.5 5.5 C 3.5 4.39543 4.39543 3.5 5.5 3.5 z "
     d="m 5.5,2.2597656 c -1.7865314,0 -3.2402344,1.453703 -3.2402344,3.2402344 v 9 a 0.23997786,0.23997786 0 0 0 0,0.0059 l 0.00391,0.154297 a 0.23997786,0.23997786 0 0 0 0,0.0059 c 0.083866,1.655304 1.4149623,2.986468 3.0703125,3.070312 a 0.23997786,0.23997786 0 0 0 0.00586,0 l 0.1542969,0.0039 a 0.23997786,0.23997786 0 0 0 0.00586,0 h 9 a 0.23997786,0.23997786 0 0 0 0.0059,0 l 0.154297,-0.0039 a 0.23997786,0.23997786 0 0 0 0.0059,0 C 16.376464,17.649678 17.740234,16.230736 17.740234,14.5 v -9 c 0,-1.7865266 -1.453656,-3.2402344 -3.240234,-3.2402344 z m 0,1.4804688 h 9 c 0.974923,0 1.759766,0.7848718 1.759766,1.7597656 v 9 c 0,0.974927 -0.784839,1.759766 -1.759766,1.759766 h -9 c -0.9748938,0 -1.7597656,-0.784843 -1.7597656,-1.759766 v -9 C 3.7402344,4.5251106 4.5251106,3.7402344 5.5,3.7402344 Z"
     transform="matrix(0.8936042,0,0,0.8936042,1.0639571,1.06395)" />
</svg>
