<svg width="20" height="20" viewBox="0 0 20 20" fill="none" xmlns="http://www.w3.org/2000/svg">
<g clip-path="url(#clip0_50_58)">
<path d="M14.5 16.5V17.5H5.5V16.5H14.5ZM16.5 14.5V5.5C16.5 4.39543 15.6046 3.5 14.5 3.5H5.5C4.39543 3.5 3.5 4.39543 3.5 5.5V14.5C3.5 15.6046 4.39543 16.5 5.5 16.5V17.5L5.3457 17.4961C3.81166 17.4184 2.58163 16.1883 2.50391 14.6543L2.5 14.5V5.5C2.5 3.84315 3.84315 2.5 5.5 2.5H14.5C16.1569 2.5 17.5 3.84315 17.5 5.5V14.5C17.5 16.1051 16.2394 17.4158 14.6543 17.4961L14.5 17.5V16.5C15.6046 16.5 16.5 15.6046 16.5 14.5Z" fill="white"/>
<path d="M17.2062 6.20798V7.20798H3.40346V6.20798H17.2062Z" fill="white"/>
<path d="M17.2062 12.3137V13.3137H3.40346V12.3137H17.2062Z" fill="white"/>
<path d="M6.50195 3.10945L7.50195 3.10945L7.50195 16.9122H6.50195L6.50195 3.10945Z" fill="white"/>
<path d="M12.6077 3.10945L13.6077 3.10945L13.6077 16.9122H12.6077L12.6077 3.10945Z" fill="white"/>
<path d="M18.7063 19L17.4073 16.75L20.0053 16.75L18.7063 19Z" fill="white"/>
</g>
<defs>
<clipPath id="clip0_50_58">
<rect width="20" height="20" fill="white"/>
</clipPath>
</defs>
</svg>
