<svg width="20" height="20" viewBox="-23 -23 558 558" fill="none" xmlns="http://www.w3.org/2000/svg">
<path d="M448,256c0-106-86-192-192-192S64,150,64,256s86,192,192,192S448,362,448,256Z" stroke="black" stroke-miterlimit="10" stroke-width="48"/>
<path d="M250.26,166.05L256,288l5.73-121.95a5.74,5.74,0,0,0-5.79-6h0A5.74,5.74,0,0,0,250.26,166.05Z" stroke="black" stroke-linecap="round" stroke-linejoin="round" stroke-width="48"/>
<path d="M256,367.91a20,20,0,1,1,20-20A20,20,0,0,1,256,367.91Z" fill="black"/>
<path d="M475 490 L440 425 L510 425 Z" fill="black"/>
</svg>
