<svg width="20" height="20" viewBox="0 0 20 20" fill="none" xmlns="http://www.w3.org/2000/svg">
<g clip-path="url(#clip0_50_64)">
<path fill-rule="evenodd" clip-rule="evenodd" d="M13.507 10.6027C13.2428 10.8669 12.9779 11.0853 12.7123 11.2581C12.7357 11.1517 12.7531 11.0449 12.7643 10.9379V10.9269L12.7733 10.7701C12.782 10.4055 12.7148 10.0503 12.5758 9.70946L13.3361 8.94297C13.3697 8.9094 13.5716 8.70376 13.7761 8.49557C13.9876 8.28017 14.2027 8.06117 14.24 8.02387C14.4274 7.81624 14.5704 7.61749 14.6692 7.42759C14.7704 7.24022 14.8261 7.06046 14.8363 6.88828C14.8464 6.73636 14.8198 6.58825 14.7565 6.44392C14.6957 6.30213 14.6008 6.16667 14.4717 6.03754C14.3324 5.89829 14.1856 5.79954 14.0311 5.74131C13.8767 5.68307 13.7171 5.66535 13.5526 5.68813C13.3627 5.71092 13.1626 5.78688 12.9525 5.91601C12.7449 6.04261 12.5271 6.21985 12.2993 6.44772L11.1485 7.5985C11.1093 7.64378 11.032 7.72972 10.9363 7.83616L10.8361 7.94766C10.8222 7.94188 10.8082 7.9362 10.7942 7.93065C10.4073 7.77515 9.99953 7.71519 9.583 7.75249C9.47379 7.763 9.36471 7.78007 9.25593 7.8034C9.43021 7.53887 9.64962 7.27434 9.91415 7.00982L11.2244 5.69953C11.5789 5.34505 11.9321 5.07287 12.2841 4.88297C12.6411 4.69307 12.9905 4.58167 13.3323 4.54875C13.6716 4.51837 13.9982 4.56648 14.3122 4.69307C14.6312 4.81967 14.93 5.02223 15.2085 5.30074C15.4895 5.58179 15.6921 5.88056 15.8161 6.19706C15.9453 6.51355 15.9959 6.84271 15.9681 7.18452C15.9326 7.5238 15.8199 7.87195 15.63 8.22895C15.4427 8.58343 15.1718 8.9379 14.8173 9.29238L13.507 10.6027ZM8.93478 8.42168C8.84507 8.65582 8.79173 8.88655 8.77477 9.11387C8.74185 9.45569 8.78869 9.78611 8.91529 10.1051C9.04442 10.4216 9.24824 10.7191 9.52676 10.9976C9.8078 11.2787 10.1053 11.4825 10.4193 11.6091C10.7383 11.7357 11.0675 11.7813 11.4067 11.7458C11.6314 11.7273 11.8594 11.6726 12.0908 11.582C12.1841 11.346 12.2426 11.114 12.2664 10.8861C12.289 10.6094 12.2601 10.341 12.1797 10.0809C12.0389 10.2015 11.9015 10.302 11.7675 10.3824C11.5549 10.514 11.3536 10.5913 11.1637 10.6141C10.9991 10.6318 10.8408 10.6128 10.6889 10.5571C10.5395 10.4989 10.3965 10.4014 10.2598 10.2646C10.1205 10.1254 10.0218 9.97854 9.96352 9.82409C9.90782 9.67217 9.89263 9.51266 9.91794 9.34555C9.93567 9.18603 9.99011 9.01766 10.0813 8.84042C10.1208 8.76665 10.2884 8.56714 10.481 8.34714C10.207 8.25639 9.92352 8.22414 9.63065 8.25036C9.40209 8.27237 9.17013 8.32948 8.93478 8.42168Z" fill="black"/>
<path fill-rule="evenodd" clip-rule="evenodd" d="M8.73806 15.1208C9.09507 14.9309 9.45081 14.6587 9.80528 14.3043L11.1156 12.994C11.47 12.6395 11.741 12.285 11.9283 11.9306C12.1182 11.5736 12.231 11.2254 12.2664 10.8861C12.2943 10.5443 12.2436 10.2152 12.1144 9.89867C11.9904 9.58217 11.7878 9.2834 11.5068 9.00235C11.2282 8.72384 10.9295 8.52128 10.6104 8.39468C10.2965 8.26809 9.96993 8.21998 9.63065 8.25036C9.28883 8.28328 8.93935 8.39468 8.58235 8.58458C8.23041 8.77448 7.8772 9.04666 7.52272 9.40114L6.21244 10.7114C5.85796 11.0659 5.58451 11.4204 5.39208 11.7748C5.20472 12.1293 5.09837 12.4762 5.07305 12.8155C5.04014 13.1573 5.08698 13.4877 5.21358 13.8067C5.34271 14.1232 5.54653 14.4207 5.82505 14.6993C6.10609 14.9803 6.4036 15.1841 6.71756 15.3107C7.03659 15.4373 7.36574 15.4829 7.70502 15.4475C8.04177 15.4196 8.38612 15.3107 8.73806 15.1208ZM10.9675 11.1292C10.8687 11.3191 10.7256 11.5179 10.5383 11.7255C10.5009 11.7628 10.2852 11.9825 10.0733 12.1983C9.86883 12.4065 9.66795 12.611 9.63438 12.6446L8.73806 13.5409C8.50512 13.7738 8.28104 13.9549 8.06583 14.084C7.85314 14.2157 7.65185 14.2929 7.46196 14.3157C7.29738 14.3334 7.13913 14.3144 6.98721 14.2587C6.83783 14.2005 6.69477 14.103 6.55805 13.9663C6.41879 13.827 6.32004 13.6801 6.26181 13.5257C6.20611 13.3738 6.19091 13.2143 6.21623 13.0472C6.23396 12.8876 6.28839 12.7193 6.37954 12.542C6.45057 12.4096 6.93421 11.8718 7.2346 11.5378C7.33041 11.4312 7.40758 11.3454 7.44676 11.3001L8.59754 10.1493C8.82542 9.92145 9.04316 9.74422 9.25078 9.61762C9.46094 9.48849 9.66096 9.41253 9.85086 9.38974C10.0154 9.36696 10.1749 9.38468 10.3294 9.44291C10.4838 9.50115 10.6307 9.5999 10.77 9.73915C10.8991 9.86828 10.994 10.0037 11.0548 10.1455C11.1181 10.2899 11.1447 10.438 11.1346 10.5899C11.1244 10.7621 11.0687 10.9418 10.9675 11.1292Z" fill="black"/>
<path d="M18.5481 19L17.2491 16.75L19.8471 16.75L18.5481 19Z" fill="black"/>
</g>
<defs>
<clipPath id="clip0_50_64">
<rect width="20" height="20" fill="white"/>
</clipPath>
</defs>
</svg>
