<?xml version="1.0" encoding="UTF-8" standalone="no"?>
<!-- Created with Inkscape (http://www.inkscape.org/) -->

<svg
   width="15.999999"
   height="15.999969"
   viewBox="0 0 4.233333 4.2333249"
   version="1.1"
   id="svg1"
   xmlns="http://www.w3.org/2000/svg"
   xmlns:svg="http://www.w3.org/2000/svg">
  <defs
     id="defs1" />
  <g
     id="layer1"
     transform="translate(-319.19073,-115.06517)">
    <rect
       style="display:inline;fill:#f2f2f2;stroke:none;stroke-width:1.5875;stroke-linecap:round;stroke-linejoin:round"
       id="rect2"
       width="4.233326"
       height="4.233326"
       x="319.19077"
       y="115.06517"
       ry="0.66145718" />
    <g
       id="g33"
       transform="matrix(0.38324925,0,0,0.38324925,291.35226,87.095276)">
      <path
         style="fill:#000000;fill-rule:nonzero;stroke:none;stroke-width:3.175;stroke-linecap:round;stroke-linejoin:round;stroke-dasharray:none"
         d="m 79.282328,96.7071 c 0,0 -0.245756,0.233148 0,0 2.587914,-2.455145 7.728003,-7.335428 13.53257,-12.844227 -0.160293,4.311433 -0.324121,8.680424 -0.466062,12.379786 a 1.7601378,1.8286908 67.73391 0 0 3.107502,1.232832 c 3.151077,-3.164387 6.805282,-6.829862 10.483422,-10.517601 -0.1581,3.920453 -0.29162,7.220742 -0.36709,9.109121 -0.009,0.236695 0,0 0,0 a 3.0095085,3.0095085 90 0 0 6.01902,0 c 0,0 0.009,0.236695 0,0 -0.11203,-2.803214 -0.35198,-8.717724 -0.61038,-15.153602 a 2.4524747,2.3559991 65.490184 0 0 -4.14575,-1.64473 c -3.69179,4.154649 -7.570067,8.517733 -11.062418,12.443087 -0.130886,-3.467654 -0.270394,-7.212974 -0.403225,-10.798356 a 1.2482261,1.2026298 66.434177 0 0 -2.087418,-0.864637 c -6.339906,6.681013 -12.168021,12.819102 -14.929053,15.729445 -0.233148,0.245756 0,0 0,0 a 0.65681868,0.65681868 90 0 0 0.928882,0.928882 z"
         id="path33"
         transform="matrix(0.33037071,0,0,0.33037071,46.816002,49.170217)" />
    </g>
  </g>
</svg>
