<?xml version="1.0" encoding="UTF-8" standalone="no"?>
<!-- Created with Inkscape (http://www.inkscape.org/) -->

<svg
   width="1122.5197"
   height="793.70081"
   viewBox="0 0 296.99999 210"
   version="1.1"
   id="svg1"
   inkscape:version="1.4.3 (0d15f75042, 2025-12-25)"
   sodipodi:docname="LOGO.svg"
   xmlns:inkscape="http://www.inkscape.org/namespaces/inkscape"
   xmlns:sodipodi="http://sodipodi.sourceforge.net/DTD/sodipodi-0.dtd"
   xmlns="http://www.w3.org/2000/svg"
   xmlns:svg="http://www.w3.org/2000/svg">
  <sodipodi:namedview
     id="namedview1"
     pagecolor="#ffffff"
     bordercolor="#242424"
     borderopacity="1"
     inkscape:showpageshadow="0"
     inkscape:pageopacity="0"
     inkscape:pagecheckerboard="0"
     inkscape:deskcolor="#505050"
     inkscape:document-units="px"
     showguides="true"
     inkscape:zoom="2.0712039"
     inkscape:cx="1327.4888"
     inkscape:cy="143.87767"
     inkscape:window-width="1920"
     inkscape:window-height="1024"
     inkscape:window-x="0"
     inkscape:window-y="0"
     inkscape:window-maximized="1"
     inkscape:current-layer="layer1"
     inkscape:export-bgcolor="#ffffffff">
    <inkscape:page
       x="0"
       y="0"
       width="297"
       height="210"
       id="page1"
       margin="0"
       bleed="0" />
    <inkscape:page
       x="309.646"
       y="0"
       width="52.916668"
       height="52.916664"
       id="page2"
       margin="0"
       bleed="0"
       inkscape:export-filename="../docs/logo/mkd-zimaos-icon.png"
       inkscape:export-xdpi="52.200001"
       inkscape:export-ydpi="52.200001" />
  </sodipodi:namedview>
  <defs
     id="defs1" />
  <g
     inkscape:label="Camada 1"
     inkscape:groupmode="layer"
     id="layer1">
    <path
       id="path3"
       style="font-size:76.0352px;font-family:BAYON;-inkscape-font-specification:BAYON;stroke-width:2.25515"
       d="m 76.118225,86.060232 -5.060985,0.02648 c -0.07048,0 -0.10557,0.03528 -0.10557,0.105755 L 70.8987,104.78424 c 0,0.0881 0.04415,0.13206 0.132238,0.13206 l 4.849293,-0.0265 v 1.8e-4 c 1.065911,-0.0176 2.021849,-0.27752 2.867529,-0.77965 0.845681,-0.51093 1.523983,-1.19366 2.034915,-2.04815 0.502123,-0.8633 0.753161,-1.81462 0.753161,-2.854111 V 91.4383 c 0,-0.995436 -0.246788,-1.902795 -0.740102,-2.722048 -0.484502,-0.828062 -1.136208,-1.484382 -1.955462,-1.968887 -0.810441,-0.484504 -1.717801,-0.71356 -2.722047,-0.687133 z m 0,3.237398 c 0.581406,-0.01762 1.083483,0.189456 1.506323,0.621105 0.42284,0.42284 0.634166,0.920484 0.634166,1.49308 v 7.796094 c 0,0.651879 -0.229058,1.211401 -0.687137,1.678291 -0.458075,0.46688 -1.021849,0.70019 -1.691346,0.70019 h -1.678107 l 0.02648,-12.262275 z" />
    <path
       style="font-size:76.0352px;font-family:BAYON;-inkscape-font-specification:BAYON;stroke-width:2.25515"
       d="m 63.368923,104.91635 h -3.06559 q -0.105709,0 -0.105709,-0.13214 l 0.05286,-18.565328 q 0,-0.132137 0.105705,-0.132137 h 3.039165 q 0.105712,0 0.105712,0.132137 v 6.408672 l 4.24161,-6.4351 q 0.105712,-0.105709 0.198207,-0.105709 h 3.105232 q 0.118924,0 0.05286,0.105709 l -4.677669,7.465773 5.24586,11.152413 q 0.06607,0.10571 -0.132136,0.10571 h -3.303439 q -0.132139,0 -0.158565,-0.10571 l -3.660211,-7.954684 -0.938179,1.479938 v 6.448316 q 0,0.13214 -0.105709,0.13214 z"
       id="path1" />
    <path
       style="font-size:76.0352px;font-family:BAYON;-inkscape-font-specification:BAYON;stroke-width:2.25515"
       d="m 54.289137,104.91635 h -3.065591 q -0.10571,0 -0.10571,-0.13214 l 0.05286,-18.591756 q 0,-0.105709 0.10571,-0.105709 h 3.303439 q 0.10571,0 0.184993,0.105709 l 2.470972,3.567715 2.457759,-3.567715 q 0.07928,-0.105709 0.198207,-0.105709 h 3.316651 q 0.118924,0 0.118924,0.105709 l 0.05286,18.591756 q 0,0.13214 -0.105713,0.13214 h -3.065587 q -0.105712,0 -0.105712,-0.13214 l -0.02644,-13.808376 -2.840956,4.122693 -2.814531,-4.122693 -0.02643,13.808376 q 0,0.13214 -0.10571,0.13214 z"
       id="text1" />
    <g
       id="g10"
       transform="translate(28.375117,58.019271)">
      <path
         id="path4"
         style="font-size:76.0352px;font-family:BAYON;-inkscape-font-specification:BAYON;stroke-width:2.25515"
         d="m 87.422926,28.124664 -5.060985,0.02648 c -0.07048,0 -0.105571,0.03528 -0.105571,0.105755 L 82.2034,46.848675 c 0,0.08809 0.04415,0.132054 0.132239,0.132054 l 4.849292,-0.02648 v 1.82e-4 c 1.065912,-0.01762 2.02185,-0.277522 2.86753,-0.779645 0.84568,-0.510932 1.523983,-1.193665 2.034915,-2.048158 0.502123,-0.863298 0.753161,-1.81462 0.753161,-2.854105 v -7.769791 c 0,-0.995436 -0.246789,-1.902795 -0.740103,-2.722048 -0.484502,-0.828062 -1.136207,-1.484382 -1.955461,-1.968886 -0.810442,-0.484505 -1.717801,-0.713561 -2.722047,-0.687134 z m 0,3.237398 c 0.581405,-0.01762 1.083482,0.189456 1.506322,0.621106 0.42284,0.42284 0.634166,0.920484 0.634166,1.49308 v 7.796094 c 0,0.651879 -0.229057,1.211404 -0.687136,1.678288 -0.458075,0.466888 -1.021849,0.700191 -1.691347,0.700191 h -1.678106 l 0.02648,-12.262274 z" />
      <path
         style="font-size:76.0352px;font-family:BAYON;-inkscape-font-specification:BAYON;stroke-width:2.25515"
         d="m 73.462757,46.980779 h -3.06559 q -0.105709,0 -0.105709,-0.132139 l 0.05286,-18.565326 q 0,-0.132137 0.105705,-0.132137 h 3.039165 q 0.105712,0 0.105712,0.132137 v 6.408672 l 4.241614,-6.435099 q 0.105712,-0.10571 0.198207,-0.10571 h 3.105231 q 0.118925,0 0.05286,0.10571 l -4.677669,7.465772 5.24586,11.152411 q 0.06607,0.105709 -0.132136,0.105709 h -3.303439 q -0.132139,0 -0.158565,-0.105709 l -3.660212,-7.954682 -0.938178,1.479939 v 6.448313 q 0,0.132139 -0.105709,0.132139 z"
         id="path5" />
      <path
         style="font-size:76.0352px;font-family:BAYON;-inkscape-font-specification:BAYON;stroke-width:2.25515"
         d="m 60.13799,46.980779 h -3.065591 q -0.105713,0 -0.105713,-0.132139 l 0.05286,-18.591753 q 0,-0.10571 0.105709,-0.10571 h 3.303439 q 0.105713,0 0.184995,0.10571 l 2.47097,3.567714 2.457759,-3.567714 q 0.07928,-0.10571 0.198206,-0.10571 h 3.316651 q 0.118924,0 0.118924,0.10571 l 0.05286,18.591753 q 0,0.132139 -0.105713,0.132139 h -3.065587 q -0.105712,0 -0.105712,-0.132139 l -0.02644,-13.808373 -2.840954,4.122692 -2.814531,-4.122692 -0.02644,13.808373 q 0,0.132139 -0.105713,0.132139 z"
         id="path6" />
      <rect
         style="fill:#000000;stroke-width:0.0943072"
         id="rect6"
         width="35.873848"
         height="2.9796374"
         x="56.966686"
         y="-51.915432"
         ry="0.35591111"
         transform="scale(1,-1)" />
      <rect
         style="fill:#000000;stroke-width:0.0943072"
         id="rect7"
         width="35.873848"
         height="2.9796374"
         x="56.966686"
         y="-26.000143"
         ry="0.35591111"
         transform="scale(1,-1)" />
    </g>
    <g
       id="g11"
       transform="translate(27.48091,75.632994)">
      <path
         id="path7"
         style="font-size:76.0352px;font-family:BAYON;-inkscape-font-specification:BAYON;stroke-width:2.25515"
         d="m 133.53842,10.431392 -5.06098,0.02648 c -0.0705,0 -0.10558,0.03528 -0.10558,0.105755 l -0.053,18.591776 c 0,0.08809 0.0441,0.132054 0.13224,0.132054 l 4.8493,-0.02648 v 1.82e-4 c 1.06591,-0.01762 2.02185,-0.277522 2.86753,-0.779645 0.84568,-0.510932 1.52398,-1.193665 2.03491,-2.048158 0.50212,-0.863298 0.75316,-1.81462 0.75316,-2.854105 V 15.80946 c 0,-0.995436 -0.24679,-1.902795 -0.7401,-2.722048 -0.4845,-0.828062 -1.13621,-1.484382 -1.95546,-1.968886 -0.81044,-0.484505 -1.7178,-0.713561 -2.72205,-0.687134 z m 0,3.237398 c 0.58141,-0.01762 1.08348,0.189456 1.50632,0.621106 0.42284,0.42284 0.63417,0.920484 0.63417,1.49308 v 7.796094 c 0,0.651879 -0.22906,1.211404 -0.68714,1.678288 -0.45807,0.466888 -1.02185,0.700191 -1.69134,0.700191 h -1.67811 l 0.0265,-12.262274 z" />
      <path
         style="font-size:76.0352px;font-family:BAYON;-inkscape-font-specification:BAYON;stroke-width:1.48323"
         d="m 120.45857,26.050607 h -2.01627 q -0.0696,0 -0.0696,-0.08691 l 0.0348,-12.210598 q 0,-0.08691 0.0695,-0.08691 h 1.99889 q 0.0696,0 0.0696,0.08691 v 4.215047 l 2.78976,-4.232429 q 0.0696,-0.06953 0.13036,-0.06953 h 2.04235 q 0.0782,0 0.0348,0.06953 l -3.07654,4.910313 3.45025,7.335051 q 0.0435,0.06953 -0.0869,0.06953 h -2.17272 q -0.0869,0 -0.10428,-0.06953 l -2.40736,-5.231873 -0.61705,0.97337 v 4.241119 q 0,0.08691 -0.0696,0.08691 z"
         id="path8" />
      <path
         style="font-size:76.0352px;font-family:BAYON;-inkscape-font-specification:BAYON;stroke-width:2.25515"
         d="m 106.25348,29.287507 h -3.06559 q -0.10571,0 -0.10571,-0.132139 l 0.0529,-18.591753 q 0,-0.10571 0.10571,-0.10571 h 3.30344 q 0.10571,0 0.18499,0.10571 l 2.47097,3.567714 2.45776,-3.567714 q 0.0793,-0.10571 0.19821,-0.10571 h 3.31665 q 0.11892,0 0.11892,0.10571 l 0.0529,18.591753 q 0,0.132139 -0.10571,0.132139 h -3.06559 q -0.10571,0 -0.10571,-0.132139 l -0.0264,-13.808373 -2.84095,4.122692 -2.81453,-4.122692 -0.0264,13.808373 q 0,0.132139 -0.10572,0.132139 z"
         id="path9" />
      <rect
         style="fill:#000000;stroke-width:0.0533634"
         id="rect9"
         width="11.486156"
         height="2.9796374"
         x="116.40695"
         y="-29.367006"
         ry="0.35591111"
         transform="scale(1,-1)" />
      <rect
         style="fill:#000000;stroke-width:0.0519761"
         id="rect10"
         width="10.896702"
         height="2.9796374"
         x="116.40695"
         y="-13.433012"
         ry="0.35591111"
         transform="scale(1,-1)" />
    </g>
    <g
       id="g15"
       inkscape:export-filename="mkd-logo.png"
       inkscape:export-xdpi="52.200001"
       inkscape:export-ydpi="52.200001"
       transform="translate(39.616566,77.667559)">
      <path
         id="path11"
         style="font-size:76.0352px;font-family:BAYON;-inkscape-font-specification:BAYON;stroke-width:2.25515"
         d="m 179.85052,14.91149 -5.06099,0.02648 c -0.0705,0 -0.10557,0.03528 -0.10557,0.105755 l -0.053,18.591776 c 0,0.08809 0.0442,0.132054 0.13224,0.132054 l 4.84929,-0.02648 v 1.82e-4 c 1.06592,-0.01762 2.02185,-0.277522 2.86753,-0.779645 0.84568,-0.510932 1.52399,-1.193665 2.03492,-2.048158 0.50212,-0.863298 0.75316,-1.81462 0.75316,-2.854105 v -7.769791 c 0,-0.995436 -0.24679,-1.902795 -0.7401,-2.722048 -0.4845,-0.828062 -1.13621,-1.484382 -1.95546,-1.968886 -0.81044,-0.484505 -1.7178,-0.713561 -2.72205,-0.687134 z m 0,3.237398 c 0.5814,-0.01762 1.08348,0.189456 1.50632,0.621106 0.42284,0.42284 0.63417,0.920484 0.63417,1.49308 v 7.796094 c 0,0.651879 -0.22906,1.211404 -0.68714,1.678288 -0.45807,0.466888 -1.02185,0.700191 -1.69135,0.700191 h -1.6781 l 0.0265,-12.262274 z" />
      <path
         style="font-size:76.0352px;font-family:BAYON;-inkscape-font-specification:BAYON;stroke-width:2.25515"
         d="m 165.89035,33.767605 h -3.06559 q -0.10571,0 -0.10571,-0.132139 l 0.0529,-18.565326 q 0,-0.132137 0.10571,-0.132137 h 3.03916 q 0.10571,0 0.10571,0.132137 v 6.408672 l 4.24162,-6.435099 q 0.10571,-0.10571 0.1982,-0.10571 h 3.10524 q 0.11892,0 0.0529,0.10571 l -4.67767,7.465772 5.24586,11.152411 q 0.0661,0.105709 -0.13214,0.105709 h -3.30344 q -0.13214,0 -0.15856,-0.105709 l -3.66022,-7.954682 -0.93817,1.479939 v 6.448313 q 0,0.132139 -0.10571,0.132139 z"
         id="path12" />
      <path
         style="font-size:76.0352px;font-family:BAYON;-inkscape-font-specification:BAYON;stroke-width:2.25515"
         d="m 152.56558,33.767605 h -3.06559 q -0.10571,0 -0.10571,-0.132139 l 0.0529,-18.591753 q 0,-0.10571 0.10571,-0.10571 h 3.30344 q 0.10571,0 0.18499,0.10571 l 2.47097,3.567714 2.45776,-3.567714 q 0.0793,-0.10571 0.19821,-0.10571 h 3.31665 q 0.11892,0 0.11892,0.10571 l 0.0529,18.591753 q 0,0.132139 -0.10571,0.132139 h -3.06559 q -0.10571,0 -0.10571,-0.132139 l -0.0264,-13.808373 -2.84095,4.122692 -2.81453,-4.122692 -0.0264,13.808373 q 0,0.132139 -0.10572,0.132139 z"
         id="path13" />
      <path
         id="rect15"
         style="baseline-shift:baseline;display:inline;overflow:visible;opacity:1;vector-effect:none;stroke-linejoin:round;enable-background:accumulate;stop-color:#000000;stop-opacity:1"
         d="m 146.36461,8.857188 c -1.34979,0 -2.48202,1.1306669 -2.48202,2.480469 v 20.861776 a 5.3251419,5.3251419 0 0 1 1.80609,-0.315743 5.3251419,5.3251419 0 0 1 1.02785,0.09973 V 11.691124 h 40.828 V 37.01516 h -36.53421 a 5.3251419,5.3251419 0 0 1 0.004,0.193269 5.3251419,5.3251419 0 0 1 -0.6997,2.638599 h 37.58169 c 1.34979,0 2.48046,-1.130684 2.48046,-2.480469 V 11.337657 c 0,-1.3497861 -1.13067,-2.480469 -2.48046,-2.480469 z" />
      <circle
         style="fill:#000000;fill-opacity:1;stroke:none;stroke-width:2.28217;stroke-linejoin:round;stroke-dasharray:none;stroke-opacity:1"
         id="path15"
         cx="145.68864"
         cy="37.208652"
         r="3.9702148" />
    </g>
    <g
       id="g16"
       inkscape:export-filename="mkd-logo.png"
       inkscape:export-xdpi="52.200001"
       inkscape:export-ydpi="52.200001"
       transform="matrix(0.88979284,0,0,0.88974275,188.35636,4.1987236)">
      <path
         id="path2"
         style="font-size:76.0352px;font-family:BAYON;-inkscape-font-specification:BAYON;stroke-width:2.25515"
         d="m 179.85052,14.91149 -5.06099,0.02648 c -0.0705,0 -0.10557,0.03528 -0.10557,0.105755 l -0.053,18.591776 c 0,0.08809 0.0442,0.132054 0.13224,0.132054 l 4.84929,-0.02648 v 1.82e-4 c 1.06592,-0.01762 2.02185,-0.277522 2.86753,-0.779645 0.84568,-0.510932 1.52399,-1.193665 2.03492,-2.048158 0.50212,-0.863298 0.75316,-1.81462 0.75316,-2.854105 v -7.769791 c 0,-0.995436 -0.24679,-1.902795 -0.7401,-2.722048 -0.4845,-0.828062 -1.13621,-1.484382 -1.95546,-1.968886 -0.81044,-0.484505 -1.7178,-0.713561 -2.72205,-0.687134 z m 0,3.237398 c 0.5814,-0.01762 1.08348,0.189456 1.50632,0.621106 0.42284,0.42284 0.63417,0.920484 0.63417,1.49308 v 7.796094 c 0,0.651879 -0.22906,1.211404 -0.68714,1.678288 -0.45807,0.466888 -1.02185,0.700191 -1.69135,0.700191 h -1.6781 l 0.0265,-12.262274 z" />
      <path
         style="font-size:76.0352px;font-family:BAYON;-inkscape-font-specification:BAYON;stroke-width:2.25515"
         d="m 165.89035,33.767605 h -3.06559 q -0.10571,0 -0.10571,-0.132139 l 0.0529,-18.565326 q 0,-0.132137 0.10571,-0.132137 h 3.03916 q 0.10571,0 0.10571,0.132137 v 6.408672 l 4.24162,-6.435099 q 0.10571,-0.10571 0.1982,-0.10571 h 3.10524 q 0.11892,0 0.0529,0.10571 l -4.67767,7.465772 5.24586,11.152411 q 0.0661,0.105709 -0.13214,0.105709 h -3.30344 q -0.13214,0 -0.15856,-0.105709 l -3.66022,-7.954682 -0.93817,1.479939 v 6.448313 q 0,0.132139 -0.10571,0.132139 z"
         id="path10" />
      <path
         style="font-size:76.0352px;font-family:BAYON;-inkscape-font-specification:BAYON;stroke-width:2.25515"
         d="m 152.56558,33.767605 h -3.06559 q -0.10571,0 -0.10571,-0.132139 l 0.0529,-18.591753 q 0,-0.10571 0.10571,-0.10571 h 3.30344 q 0.10571,0 0.18499,0.10571 l 2.47097,3.567714 2.45776,-3.567714 q 0.0793,-0.10571 0.19821,-0.10571 h 3.31665 q 0.11892,0 0.11892,0.10571 l 0.0529,18.591753 q 0,0.132139 -0.10571,0.132139 h -3.06559 q -0.10571,0 -0.10571,-0.132139 l -0.0264,-13.808373 -2.84095,4.122692 -2.81453,-4.122692 -0.0264,13.808373 q 0,0.132139 -0.10572,0.132139 z"
         id="path14" />
      <path
         id="path16"
         style="baseline-shift:baseline;display:inline;overflow:visible;opacity:1;vector-effect:none;stroke-linejoin:round;enable-background:accumulate;stop-color:#000000;stop-opacity:1"
         d="m 146.36461,8.857188 c -1.34979,0 -2.48202,1.1306669 -2.48202,2.480469 v 20.861776 a 5.3251419,5.3251419 0 0 1 1.80609,-0.315743 5.3251419,5.3251419 0 0 1 1.02785,0.09973 V 11.691124 h 40.828 V 37.01516 h -36.53421 a 5.3251419,5.3251419 0 0 1 0.004,0.193269 5.3251419,5.3251419 0 0 1 -0.6997,2.638599 h 37.58169 c 1.34979,0 2.48046,-1.130684 2.48046,-2.480469 V 11.337657 c 0,-1.3497861 -1.13067,-2.480469 -2.48046,-2.480469 z" />
      <circle
         style="fill:#000000;fill-opacity:1;stroke:none;stroke-width:2.28217;stroke-linejoin:round;stroke-dasharray:none;stroke-opacity:1"
         id="circle16"
         cx="145.68864"
         cy="37.208652"
         r="3.9702148" />
    </g>
  </g>
</svg>
