<svg width="20" height="20" viewBox="0 0 20 20" fill="none" xmlns="http://www.w3.org/2000/svg">
<g clip-path="url(#clip0_95_4)">
<path d="M6.90125 5.71655H5.98816V14.2834H6.90125V15.4382H4.50037V4.56177H6.90125V5.71655Z" fill="white"/>
<path d="M13.0933 4.56177H15.4995V15.4382H13.0933V14.2834H14.0117V5.71655H13.0933V4.56177Z" fill="white"/>
<path d="M10.7442 11.2393H9.26175L9.168 5.69043H10.8379L10.7442 11.2393ZM9.05081 13.4248C9.05081 13.167 9.13479 12.9521 9.30276 12.7803C9.47073 12.6084 9.70315 12.5225 10 12.5225C10.2891 12.5225 10.5196 12.6084 10.6914 12.7803C10.8633 12.9521 10.9492 13.167 10.9492 13.4248C10.9492 13.6748 10.8633 13.8857 10.6914 14.0576C10.5196 14.2256 10.2891 14.3096 10 14.3096C9.70315 14.3096 9.47073 14.2256 9.30276 14.0576C9.13479 13.8857 9.05081 13.6748 9.05081 13.4248Z" fill="white"/>
<path d="M18.6018 19L17.3028 16.75L19.9008 16.75L18.6018 19Z" fill="white"/>
</g>
<defs>
<clipPath id="clip0_95_4">
<rect width="20" height="20" fill="white"/>
</clipPath>
</defs>
</svg>
