<?xml version="1.0" encoding="UTF-8" standalone="no"?>
<svg
   viewBox="-5 -2 24 24"
   width="24"
   height="24"
   fill="currentColor"
   version="1.1"
   id="svg1"
   sodipodi:docname="bookmark_icon.svg"
   inkscape:version="1.4.3 (0d15f75042, 2025-12-25)"
   xmlns:inkscape="http://www.inkscape.org/namespaces/inkscape"
   xmlns:sodipodi="http://sodipodi.sourceforge.net/DTD/sodipodi-0.dtd"
   xmlns="http://www.w3.org/2000/svg"
   xmlns:svg="http://www.w3.org/2000/svg">
  <defs
     id="defs1" />
  <sodipodi:namedview
     id="namedview1"
     pagecolor="#505050"
     bordercolor="#eeeeee"
     borderopacity="1"
     inkscape:showpageshadow="0"
     inkscape:pageopacity="0"
     inkscape:pagecheckerboard="0"
     inkscape:deskcolor="#505050"
     inkscape:zoom="34.25"
     inkscape:cx="12"
     inkscape:cy="12"
     inkscape:window-width="1920"
     inkscape:window-height="1024"
     inkscape:window-x="0"
     inkscape:window-y="0"
     inkscape:window-maximized="1"
     inkscape:current-layer="svg1" />
  <path
     d="M3 2a1 1 0 0 0-1 1v15l2.978-2.717a3 3 0 0 1 4.044 0L12 18V3a1 1 0 0 0-1-1H3zm0-2h8a3 3 0 0 1 3 3v15a2 2 0 0 1-3.348 1.477L7.674 16.76a1 1 0 0 0-1.348 0l-2.978 2.717A2 2 0 0 1 0 18V3a3 3 0 0 1 3-3zm5 8h2a1 1 0 0 1 0 2H8v2a1 1 0 0 1-2 0v-2H4a1 1 0 1 1 0-2h2V6a1 1 0 1 1 2 0v2z"
     id="path1"
     style="fill:#ffffff" />
</svg>
