<?xml version="1.0" encoding="UTF-8" standalone="no"?>
<svg
   id="mdi-checkbox-multiple-marked-outline"
   viewBox="0 0 24 24"
   version="1.1"
   sodipodi:docname="checkbox_icon.svg"
   inkscape:version="1.4.3 (0d15f75042, 2025-12-25)"
   xmlns:inkscape="http://www.inkscape.org/namespaces/inkscape"
   xmlns:sodipodi="http://sodipodi.sourceforge.net/DTD/sodipodi-0.dtd"
   xmlns:xlink="http://www.w3.org/1999/xlink"
   xmlns="http://www.w3.org/2000/svg"
   xmlns:svg="http://www.w3.org/2000/svg">
  <defs
     id="defs1">
    <inkscape:path-effect
       effect="fillet_chamfer"
       id="path-effect5"
       is_visible="true"
       lpeversion="1"
       nodesatellites_param="F,0,0,1,0,0.3,0,1 @ F,0,0,1,0,0.3,0,1 @ F,0,0,1,0,0.3,0,1 @ F,0,0,1,0,0.3,0,1 @ F,0,0,1,0,0.3,0,1 @ F,0,0,1,0,0.3,0,1 @ F,0,0,1,0,0.3,0,1"
       radius="0.3"
       unit="px"
       method="auto"
       mode="F"
       chamfer_steps="1"
       flexible="false"
       use_knot_distance="true"
       apply_no_radius="true"
       apply_with_radius="true"
       only_selected="false"
       hide_knots="false" />
    <inkscape:path-effect
       effect="fillet_chamfer"
       id="path-effect4"
       is_visible="true"
       lpeversion="1"
       nodesatellites_param="F,0,0,1,0,0,0,1 @ F,0,0,1,0,0.3,0,1 @ F,0,0,1,0,0.3,0,1 @ F,0,0,1,0,0.3,0,1 @ F,0,0,1,0,0.3,0,1 @ F,0,0,1,0,0.3,0,1 @ F,0,0,1,0,0.3,0,1 @ F,0,0,1,0,0.3,0,1 @ F,0,0,1,0,0.3,0,1 @ F,0,0,1,0,0.3,0,1 @ F,0,0,1,0,0.3,0,1 @ F,0,0,1,0,0.3,0,1 @ F,0,0,1,0,0.3,0,1 @ F,0,0,1,0,0.3,0,1"
       radius="0.3"
       unit="px"
       method="auto"
       mode="F"
       chamfer_steps="1"
       flexible="false"
       use_knot_distance="true"
       apply_no_radius="true"
       apply_with_radius="true"
       only_selected="false"
       hide_knots="false" />
  </defs>
  <sodipodi:namedview
     id="namedview1"
     pagecolor="#505050"
     bordercolor="#eeeeee"
     borderopacity="1"
     inkscape:showpageshadow="0"
     inkscape:pageopacity="0"
     inkscape:pagecheckerboard="0"
     inkscape:deskcolor="#505050"
     inkscape:zoom="30.35489"
     inkscape:cx="7.0828786"
     inkscape:cy="10.179579"
     inkscape:window-width="1920"
     inkscape:window-height="1024"
     inkscape:window-x="0"
     inkscape:window-y="0"
     inkscape:window-maximized="1"
     inkscape:current-layer="mdi-checkbox-multiple-marked-outline" />
  <path
     d="m 16,20.3 v 1.4 A 0.3,0.3 135 0 1 15.7,22 H 4.3 C 4.1343146,22 3.8648036,22.002347 3.7010989,21.977815 2.835842,21.848153 2.1518885,21.164219 2.0221958,20.298972 1.9976522,20.135229 2,19.865685 2,19.7 V 7.3 A 0.3,0.3 135 0 1 2.3,7 H 3.7 A 0.3,0.3 45 0 1 4,7.3 V 19.7 A 0.3,0.3 45 0 0 4.3,20 h 11.4 a 0.3,0.3 45 0 1 0.3,0.3 z"
     id="path3"
     inkscape:path-effect="#path-effect5"
     inkscape:original-d="m 16,20 v 2 H 4 A 2,2 0 0 1 2,20 V 7 h 2 v 13 z"
     style="fill:#ffffff" />
  <path
     sodipodi:type="inkscape:offset"
     inkscape:radius="0.43401262"
     inkscape:original="M 20.589844 3.5800781 L 14 10.169922 L 10.910156 7.0800781 L 9.5 8.5 L 14 13 L 22 5 L 20.589844 3.5800781 z "
     xlink:href="#path2"
     id="path4"
     inkscape:href="#path2"
     d="M 20.589844,3.1464844 A 0.43405602,0.43405602 0 0 0 20.283203,3.2734375 L 14,9.5566406 11.216797,6.7734375 a 0.43405602,0.43405602 0 0 0 -0.615234,0 L 9.1914063,8.1933594 a 0.43405602,0.43405602 0 0 0 0.00195,0.6132812 l 4.4999996,4.5000004 a 0.43405602,0.43405602 0 0 0 0.613282,0 l 8,-8.0000004 a 0.43405602,0.43405602 0 0 0 0.002,-0.6132812 L 20.898437,3.2734375 A 0.43405602,0.43405602 0 0 0 20.589844,3.1464844 Z"
     style="fill:#ffffff" />
  <path
     d="M 10.91,7.08 14,10.17 20.59,3.58 22,5 14,13 9.5,8.5 10.91,7.08"
     id="path2"
     style="fill:#ffffff" />
  <path
     id="path1"
     d="m 8.3007813,1.8339844 c -0.1638564,0 -0.4313794,-0.00492 -0.6230469,0.023437 C 6.7370408,1.9965817 5.9965736,2.7370358 5.8574219,3.6777344 5.8290713,3.8693912 5.8339844,4.1369229 5.8339844,4.3007812 V 15.699219 c 0,0.163629 -0.0054,0.432786 0.023437,0.625 0.1401979,0.934427 0.8778717,1.677853 1.8183593,1.818359 0.1920256,0.02869 0.4612993,0.02344 0.6250001,0.02344 H 19.699219 c 0.163643,0 0.432821,0.0054 0.625,-0.02344 0.937167,-0.140473 1.677918,-0.881172 1.818359,-1.818359 0.02873,-0.19207 0.02344,-0.461321 0.02344,-0.625 v -5.398438 c 6.37e-4,-0.244697 -0.2221,-0.4674345 -0.466797,-0.4667966 h -1.398438 c -0.244697,-6.379e-4 -0.467434,0.2220996 -0.466797,0.4667966 v 5.533203 H 8.3007813 c -0.052645,1.38e-4 -0.00407,0.01032 -0.052734,-0.0098 -0.048664,-0.02008 -0.00574,0.0079 -0.042969,-0.0293 -0.037226,-0.03723 -0.00921,0.0057 -0.029297,-0.04297 -0.020083,-0.04866 -0.0099,-8.9e-5 -0.00977,-0.05273 V 4.3007812 c -1.372e-4,-0.052645 -0.010317,-0.00407 0.00977,-0.052734 0.020083,-0.048664 -0.00793,-0.00574 0.029297,-0.042969 0.037226,-0.037226 -0.0057,-0.00921 0.042969,-0.029297 0.048664,-0.020083 8.95e-5,-0.0099 0.052734,-0.00977 h 7.3984377 c 0.244697,6.379e-4 0.467435,-0.2220999 0.466797,-0.4667968 V 2.3007813 c 6.38e-4,-0.244697 -0.2221,-0.4674348 -0.466797,-0.4667969 z"
     style="fill:#ffffff" />
  <g
     inkscape:groupmode="layer"
     id="layer1"
     inkscape:label="Layer 1" />
</svg>
