<?xml version="1.0" encoding="UTF-8" standalone="no"?>
<svg
   width="20"
   height="20"
   viewBox="0 0 20 20"
   fill="none"
   version="1.1"
   id="svg2"
   sodipodi:docname="Footnote_icon.svg"
   inkscape:version="1.4.3 (0d15f75042, 2025-12-25)"
   xmlns:inkscape="http://www.inkscape.org/namespaces/inkscape"
   xmlns:sodipodi="http://sodipodi.sourceforge.net/DTD/sodipodi-0.dtd"
   xmlns="http://www.w3.org/2000/svg"
   xmlns:svg="http://www.w3.org/2000/svg">
  <defs
     id="defs2">
    <inkscape:path-effect
       effect="fillet_chamfer"
       id="path-effect2"
       is_visible="true"
       lpeversion="1"
       nodesatellites_param="F,0,0,1,0,0.3,0,1 @ F,0,0,1,0,0.3,0,1 @ F,0,0,1,0,0.3,0,1 @ F,0,0,1,0,0.3,0,1 @ F,0,0,1,0,0.3,0,1 @ F,0,0,1,0,0.3,0,1 @ F,0,0,1,0,0.3,0,1 @ F,0,0,1,0,0.3,0,1 @ F,0,0,1,0,0.3,0,1 @ F,0,0,1,0,0.3,0,1 @ F,0,0,1,0,0.3,0,1 @ F,0,0,1,0,0.3,0,1 @ F,0,0,1,0,0.3,0,1 @ F,0,0,1,0,0.3,0,1 @ F,0,0,1,0,0.3,0,1 @ F,0,0,1,0,0.3,0,1 @ F,0,0,1,0,0.3,0,1"
       radius="0.3"
       unit="px"
       method="auto"
       mode="F"
       chamfer_steps="1"
       flexible="false"
       use_knot_distance="true"
       apply_no_radius="true"
       apply_with_radius="true"
       only_selected="false"
       hide_knots="false" />
  </defs>
  <sodipodi:namedview
     id="namedview2"
     pagecolor="#505050"
     bordercolor="#eeeeee"
     borderopacity="1"
     inkscape:showpageshadow="0"
     inkscape:pageopacity="0"
     inkscape:pagecheckerboard="0"
     inkscape:deskcolor="#505050"
     inkscape:zoom="28.291631"
     inkscape:cx="7.6701129"
     inkscape:cy="10.81592"
     inkscape:window-width="1920"
     inkscape:window-height="1024"
     inkscape:window-x="0"
     inkscape:window-y="0"
     inkscape:window-maximized="1"
     inkscape:current-layer="svg2" />
  <g
     id="g2"
     transform="translate(-0.29101585,0.84667945)"
     style="fill:#ffffff">
    <path
       id="path1"
       style="fill:#ffffff"
       d="m 4.8867187,5.0234375 v 9.6531255 c 0,0.165685 0.041053,0.486913 0.1875,0.4875 h 1.3542969 c 0.1656854,0 0.4869134,-0.04105 0.4875,-0.1875 v -3.750782 a 0.3,0.3 135 0 1 0.3,-0.3 h 3.4234374 c 0.165685,0 0.486913,-0.04105 0.4875,-0.1875 V 9.6847656 c 0,-0.1656854 -0.04105,-0.4869134 -0.1875,-0.4875 H 7.2160156 a 0.3,0.3 45 0 1 -0.3,-0.3 v -2.025 a 0.3,0.3 135 0 1 0.3,-0.3 h 4.0250004 c 0.165685,0 0.486913,-0.041053 0.4875,-0.1875 V 5.3234375 c 0,-0.1656854 -0.04105,-0.4869134 -0.1875,-0.4875 H 5.3742187 c -0.1656854,0 -0.4869134,0.041053 -0.4875,0.1875 z"
       inkscape:path-effect="#path-effect2"
       inkscape:original-d="m 5.0742187,4.8359375 a 0.18825406,0.18825406 0 0 0 -0.1875,0.1875 v 9.9531255 a 0.18825406,0.18825406 0 0 0 0.1875,0.1875 h 1.6542969 a 0.18825406,0.18825406 0 0 0 0.1875,-0.1875 v -4.050782 h 4.0234374 a 0.18825406,0.18825406 0 0 0 0.1875,-0.1875 V 9.3847656 a 0.18825406,0.18825406 0 0 0 -0.1875,-0.1875 H 6.9160156 v -2.625 h 4.6250004 a 0.18825406,0.18825406 0 0 0 0.1875,-0.1875 V 5.0234375 a 0.18825406,0.18825406 0 0 0 -0.1875,-0.1875 z" />
    <path
       id="path2"
       style="fill:#ffffff;stroke-width:1.40603"
       d="m 15.517578,3.1425781 a 0.11521341,0.11521341 0 0 0 -0.03906,0.00781 L 12.867188,4.09375 a 0.11521341,0.11521341 0 0 0 -0.07617,0.1074219 v 0.9960937 a 0.11521341,0.11521341 0 0 0 0.154297,0.109375 l 1.361328,-0.4882812 v 4.4375 a 0.11521341,0.11521341 0 0 0 0.115234,0.1152344 H 15.58008 A 0.11521341,0.11521341 0 0 0 15.695313,9.2558594 V 3.2578125 A 0.11521341,0.11521341 0 0 0 15.580078,3.1425781 Z" />
  </g>
</svg>
