<svg width="20" height="20" viewBox="0 0 20 20" fill="none" xmlns="http://www.w3.org/2000/svg">
<g clip-path="url(#clip0_50_74)">
<path d="M15.22 11.1152C15.2161 11.4316 15.1887 11.75 15.1379 12.0703C15.0872 12.3906 15.011 12.6992 14.9094 12.9961C14.804 13.293 14.6692 13.5723 14.5051 13.834C14.345 14.0918 14.1516 14.3164 13.925 14.5078L15.3958 15.7324L14.6516 16.4414L12.9641 15.0117C12.843 15.0469 12.7161 15.0723 12.5833 15.0879C12.4543 15.1074 12.3196 15.1172 12.179 15.1172C11.8157 15.1172 11.4895 15.0625 11.2004 14.9531C10.9114 14.8398 10.6555 14.6875 10.4329 14.4961C10.2063 14.3047 10.011 14.0801 9.84692 13.8223C9.68286 13.5605 9.5481 13.2812 9.44263 12.9844C9.33716 12.6875 9.25903 12.3809 9.20825 12.0645C9.15747 11.7441 9.13013 11.4277 9.12622 11.1152V10.3652C9.13013 10.0527 9.15747 9.73633 9.20825 9.41602C9.25903 9.0957 9.33716 8.78711 9.44263 8.49023C9.5481 8.19336 9.68091 7.91602 9.84106 7.6582C10.0012 7.39648 10.1946 7.16797 10.4211 6.97266C10.6438 6.78125 10.8997 6.63086 11.1887 6.52148C11.4817 6.4082 11.8098 6.35156 12.1731 6.35156C12.5364 6.35156 12.8625 6.4082 13.1516 6.52148C13.4446 6.63086 13.7043 6.78125 13.9309 6.97266C14.1536 7.16406 14.345 7.39062 14.5051 7.65234C14.6692 7.91016 14.804 8.1875 14.9094 8.48438C15.011 8.78125 15.0872 9.0918 15.1379 9.41602C15.1887 9.73633 15.2161 10.0527 15.22 10.3652V11.1152ZM14.1418 10.3535C14.1379 10.1387 14.1243 9.91602 14.1008 9.68555C14.0813 9.45117 14.0442 9.2207 13.9895 8.99414C13.9309 8.77148 13.8528 8.55859 13.7551 8.35547C13.6614 8.15234 13.5422 7.97266 13.3977 7.81641C13.2532 7.66406 13.0793 7.54297 12.8762 7.45312C12.677 7.36328 12.4426 7.31836 12.1731 7.31836C11.9075 7.31836 11.675 7.36523 11.4758 7.45898C11.2766 7.54883 11.1047 7.66992 10.9602 7.82227C10.8157 7.97852 10.6946 8.1582 10.5969 8.36133C10.5032 8.56445 10.427 8.77734 10.3684 9C10.3098 9.22656 10.2668 9.45703 10.2395 9.69141C10.2161 9.92188 10.2043 10.1426 10.2043 10.3535V11.1152C10.2043 11.3262 10.2161 11.5488 10.2395 11.7832C10.2668 12.0137 10.3098 12.2422 10.3684 12.4688C10.427 12.6953 10.5032 12.9102 10.5969 13.1133C10.6946 13.3164 10.8157 13.4961 10.9602 13.6523C11.1047 13.8086 11.2766 13.9336 11.4758 14.0273C11.679 14.1172 11.9133 14.1621 12.179 14.1621C12.4485 14.1621 12.6829 14.1172 12.8821 14.0273C13.0852 13.9336 13.259 13.8086 13.4036 13.6523C13.5481 13.5 13.6672 13.3223 13.761 13.1191C13.8547 12.916 13.9309 12.7012 13.9895 12.4746C14.0442 12.248 14.0813 12.0195 14.1008 11.7891C14.1243 11.5547 14.1379 11.3301 14.1418 11.1152V10.3535Z" fill="white"/>
<path d="M4.21753 14.5111V12.7328L6.70824 11.4682L6.97339 11.3364L6.71259 11.2047L4.21753 9.95987V8.18812L8.12964 10.5988V12.0939L4.21753 14.5111Z" fill="white"/>
<path d="M18.5 19L17.201 16.75L19.799 16.75L18.5 19Z" fill="white"/>
</g>
<defs>
<clipPath id="clip0_50_74">
<rect width="20" height="20" fill="white"/>
</clipPath>
</defs>
</svg>
