<svg width="20" height="20" viewBox="0 0 20 20" fill="none" xmlns="http://www.w3.org/2000/svg">
<path fill-rule="evenodd" clip-rule="evenodd" d="M12.1196 12.4771C12.271 12.7017 12.3467 12.9775 12.3467 13.3047C12.3467 13.5977 12.2832 13.8516 12.1562 14.0664C12.0293 14.2764 11.8657 14.4497 11.6655 14.5864C11.4653 14.728 11.2358 14.833 10.9771 14.9014C10.7231 14.9648 10.4644 14.9966 10.2007 14.9966C9.86865 14.9966 9.56104 14.9526 9.27783 14.8647C8.99951 14.772 8.75293 14.6353 8.53809 14.4546C8.32324 14.2788 8.14746 14.064 8.01074 13.8101C7.87402 13.5513 7.78369 13.2559 7.73975 12.9238H6.35547C6.37012 13.3828 6.47021 13.8003 6.65576 14.1763C6.84619 14.5474 7.10254 14.8721 7.4248 15.1504C7.78613 15.4727 8.21094 15.7192 8.69922 15.8901C9.19238 16.061 9.69287 16.1465 10.2007 16.1465C10.6255 16.1465 11.0503 16.0879 11.4751 15.9707C11.8999 15.8486 12.2808 15.668 12.6177 15.4287C12.9546 15.1943 13.228 14.8989 13.438 14.5425C13.6528 14.186 13.7603 13.7686 13.7603 13.29C13.7603 12.9429 13.7065 12.6259 13.5989 12.3391H12.0208C12.0557 12.3836 12.0886 12.4295 12.1196 12.4771ZM8.89005 10.8391H12.2989C12.0791 10.6947 11.846 10.5693 11.5996 10.4629C11.2041 10.2871 10.8086 10.1382 10.4131 10.0161C10.1738 9.94287 9.91748 9.85742 9.64404 9.75977C9.37549 9.66211 9.12646 9.54004 8.89697 9.39355C8.6626 9.24707 8.46973 9.06885 8.31836 8.85889C8.16699 8.64404 8.08887 8.38281 8.08398 8.0752C8.08398 7.79199 8.14014 7.54297 8.25244 7.32812C8.36963 7.11328 8.52588 6.93262 8.72119 6.78613C8.91162 6.63965 9.12891 6.52979 9.37305 6.45654C9.62207 6.3833 9.87598 6.34668 10.1348 6.34668C10.457 6.34668 10.7451 6.39795 10.999 6.50049C11.2578 6.59814 11.48 6.7373 11.6655 6.91797C11.8511 7.09863 12 7.31592 12.1123 7.56982C12.2246 7.81885 12.3003 8.09717 12.3394 8.40479H13.731C13.7212 7.9165 13.6162 7.47461 13.416 7.0791C13.2158 6.68359 12.9497 6.34668 12.6177 6.06836C12.2856 5.79004 11.9048 5.5752 11.4751 5.42383C11.0454 5.26758 10.5986 5.18945 10.1348 5.18945C9.71484 5.18945 9.29736 5.25537 8.88232 5.38721C8.46729 5.51416 8.09619 5.70215 7.76904 5.95117C7.44189 6.2002 7.17578 6.50537 6.9707 6.8667C6.77051 7.22803 6.67041 7.63818 6.67041 8.09717C6.67041 8.55615 6.77051 8.95654 6.9707 9.29834C7.17578 9.63525 7.43945 9.92822 7.76172 10.1772C8.0791 10.4214 8.43066 10.6313 8.81641 10.8071L8.89005 10.8391Z" fill="white"/>
<path d="M15.5576 10.0891C15.9717 10.0892 16.3076 10.425 16.3076 10.8391C16.3076 11.2532 15.9717 11.589 15.5576 11.5891H4.44238C4.02817 11.5891 3.69238 11.2533 3.69238 10.8391C3.69238 10.4249 4.02817 10.0891 4.44238 10.0891H15.5576Z" fill="white"/>
</svg>
