<?xml version="1.0" encoding="UTF-8" standalone="no"?>
<svg
   width="20"
   height="20"
   viewBox="0 0 20 20"
   fill="none"
   version="1.1"
   id="svg2"
   sodipodi:docname="Strike_icon.svg"
   inkscape:version="1.4.3 (0d15f75042, 2025-12-25)"
   xmlns:inkscape="http://www.inkscape.org/namespaces/inkscape"
   xmlns:sodipodi="http://sodipodi.sourceforge.net/DTD/sodipodi-0.dtd"
   xmlns="http://www.w3.org/2000/svg"
   xmlns:svg="http://www.w3.org/2000/svg">
  <defs
     id="defs2" />
  <sodipodi:namedview
     id="namedview2"
     pagecolor="#505050"
     bordercolor="#eeeeee"
     borderopacity="1"
     inkscape:showpageshadow="0"
     inkscape:pageopacity="0"
     inkscape:pagecheckerboard="0"
     inkscape:deskcolor="#505050"
     inkscape:zoom="42.5"
     inkscape:cx="10"
     inkscape:cy="10"
     inkscape:window-width="1920"
     inkscape:window-height="1024"
     inkscape:window-x="0"
     inkscape:window-y="0"
     inkscape:window-maximized="1"
     inkscape:current-layer="svg2" />
  <path
     id="path1"
     style="fill:#ffffff;stroke:none;stroke-width:0;stroke-linejoin:round;stroke-dasharray:none"
     sodipodi:type="inkscape:offset"
     inkscape:radius="0.18656857"
     inkscape:original="M 10.134766 4.9902344 C 9.7148052 4.9902344 9.2978525 5.05566 8.8828125 5.1875 C 8.4677825 5.31445 8.0966812 5.5029331 7.7695312 5.7519531 C 7.4423812 6.0009831 7.1757831 6.3046856 6.9707031 6.6660156 C 6.7705131 7.0273456 6.6699219 7.4374944 6.6699219 7.8964844 C 6.6699219 8.3554644 6.7705131 8.7558563 6.9707031 9.0976562 C 7.1757831 9.4345663 7.4394487 9.7275825 7.7617188 9.9765625 C 8.0790986 10.220762 8.4306563 10.431622 8.8164062 10.607422 L 8.890625 10.638672 L 12.298828 10.638672 C 12.079028 10.494272 11.846009 10.370072 11.599609 10.263672 C 11.204109 10.087872 10.809564 9.9385062 10.414062 9.8164062 C 10.174762 9.7431763 9.9179712 9.6581969 9.6445312 9.5605469 C 9.3759813 9.4628869 9.1259744 9.3398494 8.8964844 9.1933594 C 8.6621144 9.0468794 8.4697294 8.8681631 8.3183594 8.6582031 C 8.1669894 8.4433531 8.0888744 8.18261 8.0839844 7.875 C 8.0839844 7.59179 8.1396531 7.3437562 8.2519531 7.1289062 C 8.3691431 6.9140663 8.5253931 6.7324275 8.7207031 6.5859375 C 8.9111331 6.4394575 9.1289069 6.3291094 9.3730469 6.2558594 C 9.6220669 6.1826194 9.8759452 6.1464844 10.134766 6.1464844 C 10.456966 6.1464844 10.744147 6.1982412 10.998047 6.3007812 C 11.256847 6.3984312 11.480516 6.53808 11.666016 6.71875 C 11.851616 6.89941 11.999028 7.1152406 12.111328 7.3691406 C 12.223628 7.6181706 12.300744 7.8974581 12.339844 8.2050781 L 13.730469 8.2050781 C 13.720669 7.7167881 13.616216 7.2744162 13.416016 6.8789062 C 13.215816 6.4833963 12.949187 6.1474606 12.617188 5.8691406 C 12.285087 5.5908206 11.904309 5.3759794 11.474609 5.2246094 C 11.044909 5.0683594 10.598566 4.9902344 10.134766 4.9902344 z M 12.021484 12.138672 C 12.056384 12.183172 12.088141 12.229744 12.119141 12.277344 C 12.270541 12.501944 12.347656 12.778269 12.347656 13.105469 C 12.347656 13.398469 12.28325 13.652387 12.15625 13.867188 C 12.02935 14.077187 11.866216 14.250019 11.666016 14.386719 C 11.465816 14.528319 11.235263 14.632772 10.976562 14.701172 C 10.722563 14.764572 10.464872 14.796875 10.201172 14.796875 C 9.8691218 14.796875 9.5605538 14.751962 9.2773438 14.664062 C 8.9990237 14.571363 8.7539025 14.434606 8.5390625 14.253906 C 8.3242125 14.078106 8.1464856 13.863275 8.0097656 13.609375 C 7.8730456 13.350575 7.7841744 13.056709 7.7402344 12.724609 L 6.3554688 12.724609 C 6.3701187 13.183609 6.4707 13.600563 6.65625 13.976562 C 6.84668 14.347664 7.1015681 14.672872 7.4238281 14.951172 C 7.7851581 15.273472 8.2109387 15.518553 8.6992188 15.689453 C 9.1923787 15.860353 9.6933418 15.947266 10.201172 15.947266 C 10.625972 15.947266 11.049809 15.888684 11.474609 15.771484 C 11.899409 15.649384 12.280286 15.467816 12.617188 15.228516 C 12.954086 14.994116 13.2275 14.698197 13.4375 14.341797 C 13.6523 13.985297 13.759766 13.568444 13.759766 13.089844 C 13.759766 12.742744 13.707209 12.425472 13.599609 12.138672 L 12.021484 12.138672 z "
     d="m 10.134766,4.8027344 c -0.4393382,0 -0.8761661,0.069668 -1.3085941,0.2070312 C 8.3922021,5.142723 8.0009343,5.3411489 7.65625,5.6035156 7.3098001,5.8672369 7.025783,6.1915534 6.8085937,6.5742187 a 0.18658723,0.18658723 0 0 0 -0.00195,0.00195 C 6.5902854,6.9666791 6.4824219,7.4102357 6.4824219,7.8964844 c 0,0.4862392 0.1095972,0.9218125 0.328125,1.2949219 a 0.18658723,0.18658723 0 0 0 0,0.00391 C 7.0275745,9.5518504 7.3090857,9.862823 7.6484375,10.125 c 0.3290147,0.253152 0.6917906,0.470937 1.0898438,0.652344 a 0.18658723,0.18658723 0 0 0 0.00586,0.002 l 0.074219,0.03125 a 0.18658723,0.18658723 0 0 0 0.072266,0.01563 h 3.408203 a 0.18658723,0.18658723 0 0 0 0.101563,-0.34375 c -0.228607,-0.150186 -0.469902,-0.278528 -0.72461,-0.388672 l -0.002,-0.002 C 11.272871,9.9136743 10.871027,9.7628634 10.46875,9.6386719 10.232903,9.5664985 9.979167,9.4812217 9.7089844,9.3847656 h -0.00195 C 9.4514772,9.2916967 9.2132399,9.1737668 8.9960938,9.0351563 8.7806479,8.9005037 8.6056357,8.7386975 8.46875,8.5488281 8.3425123,8.3687049 8.2765008,8.1496385 8.2714844,7.875 v -0.00195 c -1.21e-5,-7.049e-4 1.12e-5,-0.00125 0,-0.00195 5.574e-4,-0.2552035 0.049542,-0.469124 0.1445312,-0.6523437 l 0.00195,-0.00195 c 2.719e-4,-5.223e-4 -2.728e-4,-0.00143 0,-0.00195 C 8.5226779,7.024103 8.6588892,6.8642382 8.8320313,6.734375 a 0.18658723,0.18658723 0 0 0 0.00195,0 C 9.005821,6.6021972 9.2017903,6.5007984 9.4257813,6.4335937 v 0.00195 c 0.2320254,-0.068242 0.4675286,-0.1015625 0.7089847,-0.1015625 0.30222,0 0.56415,0.048214 0.792968,0.140625 a 0.18658723,0.18658723 0 0 0 0.0039,0 c 0.237051,0.089444 0.437291,0.2150567 0.603515,0.3769531 0.167762,0.1632965 0.30256,0.359316 0.40625,0.59375 0.103969,0.2305552 0.175879,0.4920104 0.212891,0.7832031 a 0.18658723,0.18658723 0 0 0 0.185547,0.1640625 h 1.390625 a 0.18658723,0.18658723 0 0 0 0.1875,-0.1914062 C 13.90768,7.6885515 13.795738,7.2171153 13.582031,6.7949219 13.370912,6.3778396 13.087281,6.0207721 12.736328,5.7265625 12.38709,5.4338809 11.987669,5.2070741 11.539063,5.0488281 h -0.002 C 11.08773,4.885656 10.618876,4.8027344 10.134766,4.8027344 Z m 1.886718,7.1484376 A 0.18658723,0.18658723 0 0 0 11.875,12.253906 c 0.02981,0.03801 0.05832,0.07959 0.08789,0.125 a 0.18658723,0.18658723 0 0 0 0.002,0.002 c 0.128169,0.190138 0.195312,0.426724 0.195312,0.72461 0,0.265659 -0.05578,0.482874 -0.164062,0.666015 -0.11373,0.188205 -0.256847,0.338918 -0.435547,0.460938 a 0.18658723,0.18658723 0 0 0 -0.002,0.002 c -0.179708,0.127106 -0.388274,0.221751 -0.626953,0.285156 -0.239679,0.05983 -0.482005,0.08984 -0.730469,0.08984 -0.3138379,0 -0.6024175,-0.04189 -0.8652345,-0.123047 -0.257285,-0.08569 -0.480906,-0.209449 -0.6777344,-0.375 a 0.18658723,0.18658723 0 0 0 -0.00195,-0.002 C 8.4600262,13.948816 8.2993771,13.754639 8.1738281,13.521484 8.0487574,13.284735 7.9673078,13.013077 7.9257812,12.699219 A 0.18658723,0.18658723 0 0 0 7.7402344,12.537109 H 6.3554687 a 0.18658723,0.18658723 0 0 0 -0.1855468,0.19336 c 0.015403,0.482613 0.1204276,0.927035 0.3183593,1.328125 a 0.18658723,0.18658723 0 0 0 0.00195,0.0039 c 0.2010898,0.391875 0.4726561,0.735812 0.8125,1.029297 0.3799118,0.338076 0.8265606,0.595837 1.3339844,0.773437 a 0.18658723,0.18658723 0 0 0 0.00195,0 c 0.5116038,0.177292 1.0333828,0.269532 1.5625001,0.269532 0.441952,0 0.882161,-0.06217 1.322266,-0.183594 a 0.18658723,0.18658723 0 0 0 0.002,0 c 0.443538,-0.127486 0.844518,-0.318371 1.199218,-0.570313 0.358047,-0.249114 0.650122,-0.565457 0.873047,-0.943359 v -0.002 c 0.23316,-0.387665 0.34961,-0.839845 0.34961,-1.345703 0,-0.365933 -0.05735,-0.707117 -0.173828,-1.017578 a 0.18658723,0.18658723 0 0 0 -0.173829,-0.121094 z" />
  <path
     d="m 15.5576,11.3791 c 0.4141,-10e-5 0.75,-0.3359 0.75,-0.75 0,-0.4141 -0.3359,-0.7499 -0.75,-0.75 H 4.44238 c -0.41421,0 -0.75,0.3358 -0.75,0.75 0,0.4142 0.33579,0.75 0.75,0.75 z"
     fill="#000000"
     id="path2"
     style="fill:#ffffff" />
</svg>
