<?xml version="1.0" encoding="UTF-8" standalone="no"?>
<svg
   width="20"
   height="20"
   viewBox="0 0 20 20"
   fill="none"
   version="1.1"
   id="svg2"
   sodipodi:docname="Subescrito_icon.svg"
   inkscape:version="1.4.3 (0d15f75042, 2025-12-25)"
   xmlns:inkscape="http://www.inkscape.org/namespaces/inkscape"
   xmlns:sodipodi="http://sodipodi.sourceforge.net/DTD/sodipodi-0.dtd"
   xmlns="http://www.w3.org/2000/svg"
   xmlns:svg="http://www.w3.org/2000/svg">
  <defs
     id="defs2">
    <inkscape:path-effect
       effect="fillet_chamfer"
       id="path-effect2"
       is_visible="true"
       lpeversion="1"
       nodesatellites_param="F,0,0,1,0,0.3,0,1 @ F,0,0,1,0,0.3,0,1 @ F,0,0,1,0,0.3,0,1 @ F,0,0,1,0,0.3,0,1 @ F,0,0,1,0,0.3,0,1 @ F,0,0,1,0,0.3,0,1 @ F,0,0,1,0,0.3,0,1 @ F,0,0,1,0,0.3,0,1 | F,0,0,1,0,0.3,0,1 @ F,0,0,1,0,0.3,0,1 @ F,0,0,1,0,0.3,0,1"
       radius="0.3"
       unit="px"
       method="auto"
       mode="F"
       chamfer_steps="1"
       flexible="false"
       use_knot_distance="true"
       apply_no_radius="true"
       apply_with_radius="true"
       only_selected="false"
       hide_knots="false" />
  </defs>
  <sodipodi:namedview
     id="namedview2"
     pagecolor="#505050"
     bordercolor="#eeeeee"
     borderopacity="1"
     inkscape:showpageshadow="0"
     inkscape:pageopacity="0"
     inkscape:pagecheckerboard="0"
     inkscape:deskcolor="#505050"
     inkscape:zoom="42.5"
     inkscape:cx="10"
     inkscape:cy="10"
     inkscape:window-width="1920"
     inkscape:window-height="1052"
     inkscape:window-x="0"
     inkscape:window-y="0"
     inkscape:window-maximized="1"
     inkscape:current-layer="svg2" />
  <path
     d="M 9.05156,13.21 H 6.52754 A 0.40148488,0.40148488 143.23195 0 0 6.1425166,13.4977 L 5.6358034,15.2123 A 0.40148488,0.40148488 143.23195 0 1 5.25078,15.5 H 4.1418 A 0.21783232,0.21783232 54.016308 0 1 3.9346675,15.214736 L 6.9891625,5.8321441 A 0.41316183,0.41316183 144.01631 0 1 7.38203,5.54688 h 0.85606 a 0.41100583,0.41100583 36.126328 0 1 0.391446,0.285723 l 3.002618,9.381674 A 0.21897499,0.21897499 126.12633 0 1 11.4236,15.5 H 10.3215 A 0.40033939,0.40033939 36.846576 0 1 9.9372656,15.212068 L 9.4357944,13.497932 A 0.40033939,0.40033939 36.846576 0 0 9.05156,13.21 Z M 6.94453,11.8018 H 8.64824 A 0.22537612,0.22537612 126.91584 0 0 8.864702,11.513666 L 7.890178,8.1523944 A 0.08775894,0.08775894 0.13745893 0 0 7.7217204,8.1519902 L 6.7294496,11.51407 A 0.22425221,0.22425221 53.221615 0 0 6.94453,11.8018 Z"
     fill="#000000"
     id="path1"
     inkscape:path-effect="#path-effect2"
     inkscape:original-d="M 9.35156,13.21 H 6.22754 L 5.55078,15.5 H 3.8418 L 7.08203,5.54688 H 8.53809 L 11.7236,15.5 H 10.0215 Z M 6.64453,11.8018 H 8.94824 L 7.80664,7.86426 Z"
     style="fill:#ffffff" />
  <path
     d="m 12.9407,17.497139 v -4.98885 h 1.596669 c 0.242095,0 0.469456,0.0274 0.681845,0.08223 0.212391,0.05254 0.396361,0.133632 0.551677,0.243277 0.155317,0.109646 0.276365,0.25012 0.363145,0.421447 0.0891,0.169035 0.13368,0.370046 0.13368,0.603043 -0.0025,0.141632 -0.02735,0.274119 -0.07544,0.397471 -0.0456,0.12106 -0.111928,0.228425 -0.198706,0.322082 -0.06164,0.06852 -0.13134,0.12906 -0.208999,0.181596 -0.07533,0.05026 -0.163269,0.09594 -0.263851,0.13706 v 0.0069 c 0.148533,0.03883 0.275313,0.09594 0.380337,0.171315 0.10514,0.0731 0.193093,0.156474 0.263851,0.250132 0.07309,0.100511 0.127949,0.212437 0.164439,0.335789 0.03884,0.12106 0.05825,0.248985 0.05825,0.383752 0.0025,0.237571 -0.03989,0.446581 -0.126779,0.627042 -0.08679,0.18045 -0.206659,0.331216 -0.359754,0.452276 -0.152976,0.123353 -0.335777,0.21701 -0.548167,0.280973 -0.210167,0.06167 -0.43858,0.09251 -0.685355,0.09251 z m 0.938769,-2.16484 v 1.396675 h 0.793919 c 0.114237,0 0.218519,-0.01619 0.312743,-0.04857 0.09422,-0.03239 0.174385,-0.07692 0.240485,-0.1336 0.07226,-0.0587 0.127377,-0.130563 0.165454,-0.215577 0.04002,-0.08703 0.06015,-0.18318 0.06015,-0.288445 0,-0.111327 -0.0161,-0.209504 -0.04814,-0.294518 -0.03203,-0.08703 -0.08016,-0.160918 -0.144311,-0.221639 -0.06414,-0.06073 -0.142361,-0.107286 -0.234533,-0.139673 -0.09227,-0.03441 -0.197478,-0.05263 -0.315822,-0.05465 z m -0.02991,-0.826451 h 0.709791 c 0.121983,-0.0019 0.233493,-0.0174 0.334845,-0.04638 0.103261,-0.02899 0.190012,-0.07152 0.260262,-0.127565 0.06413,-0.05025 0.114684,-0.111129 0.151923,-0.182645 0.03722,-0.07151 0.05576,-0.15365 0.05576,-0.246423 0,-0.09857 -0.01755,-0.183614 -0.05268,-0.25512 -0.03301,-0.07345 -0.08051,-0.133365 -0.142509,-0.179756 -0.07024,-0.05798 -0.15806,-0.09953 -0.263539,-0.124656 -0.105376,-0.02707 -0.222069,-0.04155 -0.350189,-0.04349 h -0.703656 z"
     fill="#000000"
     id="path2-5"
     style="stroke-width:1.16956;fill:#ffffff"
     sodipodi:nodetypes="ccscsccccccccccccccccccssccsccccccccccscccccc" />
</svg>
