<?xml version="1.0" encoding="UTF-8" standalone="no"?>
<svg
   width="20"
   height="20"
   viewBox="0 0 20 20"
   fill="none"
   version="1.1"
   id="svg3"
   sodipodi:docname="URL_icon.svg"
   inkscape:version="1.4.3 (0d15f75042, 2025-12-25)"
   xmlns:inkscape="http://www.inkscape.org/namespaces/inkscape"
   xmlns:sodipodi="http://sodipodi.sourceforge.net/DTD/sodipodi-0.dtd"
   xmlns="http://www.w3.org/2000/svg"
   xmlns:svg="http://www.w3.org/2000/svg">
  <sodipodi:namedview
     id="namedview3"
     pagecolor="#505050"
     bordercolor="#eeeeee"
     borderopacity="1"
     inkscape:showpageshadow="0"
     inkscape:pageopacity="0"
     inkscape:pagecheckerboard="0"
     inkscape:deskcolor="#505050"
     inkscape:zoom="36.425868"
     inkscape:cx="7.5221268"
     inkscape:cy="9.7458212"
     inkscape:window-width="1920"
     inkscape:window-height="1024"
     inkscape:window-x="0"
     inkscape:window-y="0"
     inkscape:window-maximized="1"
     inkscape:current-layer="svg3" />
  <path
     id="path1"
     style="fill:#ffffff"
     d="m 13.616797,4.0785156 c -0.367234,0.03537 -0.739822,0.1548605 -1.113281,0.3535156 -6.67e-4,-3.9e-6 -0.0013,-3.9e-6 -0.002,0 -0.369921,0.1996501 -0.734012,0.4821258 -1.09761,0.8457032 L 10.093359,6.5882812 C 9.821771,6.8598696 9.5952536,7.1349339 9.4136719,7.4105469 9.3317459,7.5376368 9.4432699,7.7006341 9.5914063,7.6703125 9.6959738,7.6478855 9.797556,7.6311555 9.898047,7.6214845 c 0.39008,-0.034931 0.767873,0.022118 1.130859,0.1679687 6.67e-4,3.9e-6 0.0013,3.9e-6 0.002,0 0.02471,0.00979 0.03912,0.014841 0.04102,0.015625 0.06689,0.026951 0.143494,0.00897 0.191406,-0.044922 l 0.09961,-0.1113281 c 0.09124,-0.1014865 0.162641,-0.1776459 0.207031,-0.2285156 l 0.0078,-0.00977 1.142579,-1.1425782 c 0.22083,-0.2208009 0.428691,-0.3885265 0.621093,-0.5058593 4e-6,-6.5e-4 4e-6,-0.0013 0,-0.00195 0.193586,-0.1189801 0.371046,-0.1819355 0.53125,-0.2011718 0.0013,1.48e-5 0.0026,1.48e-5 0.0039,0 0.138164,-0.019122 0.265873,-0.00553 0.394531,0.042969 0.128777,0.048567 0.253707,0.1306158 0.378906,0.2558594 0.116662,0.116599 0.19912,0.2329064 0.25,0.3515625 -4e-6,6.5e-4 -4e-6,0.0013 0,0.00195 0.05307,0.1210143 0.07469,0.240692 0.06641,0.3652344 -4e-6,6.5e-4 -4e-6,0.0013 0,0.00195 -0.0084,0.1420428 -0.05621,0.2962063 -0.148437,0.4667969 -6.83e-4,0.00129 -0.0014,0.0026 -0.002,0.00391 -0.09027,0.1736831 -0.222541,0.3592743 -0.402344,0.5585938 -0.0453,0.045395 -0.250048,0.2560616 -0.458984,0.46875 -0.204442,0.208232 -0.410182,0.4159799 -0.439454,0.4453125 L 12.755469,9.2875 c -0.04865,0.048711 -0.06328,0.1218726 -0.03711,0.1855469 0.130595,0.3202278 0.193778,0.6511761 0.185547,0.9921871 l -0.0098,0.152344 c -4e-6,6.67e-4 -4e-6,0.0013 0,0.002 -0.01044,0.09973 -0.02661,0.199741 -0.04883,0.300782 -0.0326,0.149078 0.131836,0.262777 0.259802,0.17964 0.276908,-0.180157 0.550783,-0.404297 0.822266,-0.675781 l 1.310547,-1.3105471 c 0.364005,-0.3640878 0.644769,-0.7325778 0.841796,-1.1054688 0.198282,-0.3727565 0.319391,-0.7409679 0.357422,-1.1054687 1.5e-5,-0.0013 1.5e-5,-0.00261 0,-0.00391 C 16.467006,6.5325588 16.413508,6.1747183 16.275,5.834375 V 5.832425 C 16.141033,5.4912216 15.922721,5.1734499 15.628516,4.8792969 15.336793,4.5875636 15.020041,4.3710075 14.677344,4.2347656 h -0.002 C 14.337822,4.0989486 13.981186,4.0458893 13.616797,4.0785156 Z M 9.1152344,8.5800781 c -0.2459359,0.023683 -0.493954,0.086351 -0.7421875,0.1835938 -0.044853,0.017346 -0.08031,0.052803 -0.097656,0.097656 -0.094723,0.2472226 -0.1514549,0.4915907 -0.1699221,0.7363284 -0.035403,0.3677088 0.016127,0.7270907 0.1523437,1.0703127 -3.9e-6,6.67e-4 -3.9e-6,0.0013 0,0.002 0.1387104,0.339982 0.3563482,0.65715 0.6484375,0.949219 0.2944902,0.294553 0.611027,0.512083 0.949219,0.648437 6.67e-4,4e-6 0.0013,4e-6 0.002,0 0.343226,0.136215 0.700727,0.186698 1.066406,0.148438 0.241552,-0.02029 0.484857,-0.08034 0.728516,-0.175782 0.04372,-0.01735 0.07835,-0.05198 0.0957,-0.0957 0.09846,-0.248794 0.161934,-0.495426 0.1875,-0.740234 1.5e-5,-0.0013 1.5e-5,-0.0026 0,-0.0039 0.02416,-0.297096 -0.005,-0.589935 -0.0918,-0.871094 -0.03648,-0.118044 -0.182378,-0.159458 -0.275432,-0.07818 -0.135179,0.115785 -0.265033,0.210973 -0.388671,0.285156 -6.72e-4,6.61e-4 -0.0013,0.0013 -0.002,0.002 -0.196198,0.121391 -0.372211,0.185704 -0.53125,0.205078 -0.139571,0.01502 -0.269591,-6.53e-4 -0.396484,-0.04687 h -0.002 C 10.125656,10.848237 10.002994,10.764859 9.880766,10.642631 9.755401,10.517266 9.671105,10.392776 9.622954,10.265678 v -0.002 c -0.04516,-0.124052 -0.05846,-0.251592 -0.03711,-0.392528 7.02e-4,-0.00194 0.0014,-0.00389 0.002,-0.00586 0.01489,-0.134012 0.06273,-0.2843541 0.146484,-0.4472656 0.0041,-0.00712 0.05351,-0.079457 0.121094,-0.1621094 0.06849,-0.083769 0.158326,-0.1857446 0.253906,-0.2949219 0.08137,-0.092405 0.04115,-0.2379388 -0.07612,-0.2754451 C 9.737701,8.5876754 9.430552,8.5518494 9.1152344,8.5800781 Z"
     sodipodi:nodetypes="ccccscccccccccccccccccccccccccccccccccscccccccccccccccccccccccccccccccsccccccccc" />
  <path
     id="path2"
     style="fill:#ffffff"
     d="M 9.3152344,8.3800781 C 8.9480012,8.4154467 8.5754041,8.534943 8.2019531,8.7335938 7.8319348,8.9332429 7.4659163,9.2157243 7.1023437,9.5792969 L 5.7917969,10.889844 C 5.4280104,11.25366 5.144123,11.621453 4.9421875,11.993359 a 0.17065583,0.17065583 0 0 0 0,0.002 c -0.1959302,0.370695 -0.3122404,0.739613 -0.3398438,1.105468 -0.035396,0.367618 0.01622,0.725361 0.1523438,1.06836 a 0.17065583,0.17065583 0 0 0 0,0.002 c 0.1387121,0.339986 0.3563991,0.657086 0.6484375,0.949219 0.2944751,0.294422 0.6110547,0.512077 0.9492187,0.648437 a 0.17065583,0.17065583 0 0 0 0.00195,0 c 0.3434903,0.136307 0.7027051,0.186589 1.0683593,0.148438 0.362227,-0.0306 0.727947,-0.147269 1.0957032,-0.345704 0.3752795,-0.199617 0.74356,-0.481914 1.1074219,-0.845703 l 1.3105469,-1.310547 c 0.364139,-0.364138 0.644712,-0.732755 0.841797,-1.105468 0.198288,-0.37277 0.319291,-0.741028 0.357422,-1.105469 a 0.17065583,0.17065583 0 0 0 0,-0.0039 c 0.02978,-0.366186 -0.0236,-0.724062 -0.162109,-1.064453 v -0.002 C 11.839393,9.7928592 11.621167,9.4750208 11.326953,9.1808594 11.034955,8.8888504 10.7163,8.6724778 10.373828,8.5363281 h -0.002 C 10.034549,8.4006071 9.6795442,8.3474578 9.3152344,8.3800781 Z m 0.2558594,1.4804688 a 0.17065583,0.17065583 0 0 0 0.00391,0 c 0.1381152,-0.019119 0.2658602,-0.00553 0.3945312,0.042969 0.128802,0.048584 0.253705,0.1306131 0.378907,0.2558591 0.11667,0.116608 0.199115,0.23289 0.25,0.351563 a 0.17065583,0.17065583 0 0 0 0,0.002 c 0.05313,0.121194 0.07476,0.240846 0.06641,0.365234 a 0.17065583,0.17065583 0 0 0 0,0.002 c -0.0083,0.141939 -0.05617,0.296109 -0.148438,0.466797 a 0.17065583,0.17065583 0 0 0 -0.002,0.0039 c -0.09028,0.173696 -0.222548,0.359312 -0.402344,0.558594 -0.04591,0.0459 -0.251732,0.257547 -0.4609373,0.470703 -0.2045912,0.208293 -0.4086008,0.414434 -0.4375,0.44336 L 8.3171875,13.719922 C 8.0916254,13.945445 7.8781388,14.11775 7.6785156,14.2375 a 0.17065583,0.17065583 0 0 0 -0.00195,0.002 c -0.1963843,0.121604 -0.3750729,0.187758 -0.5332031,0.207031 -0.138352,0.01488 -0.2683407,-0.0021 -0.3964844,-0.04883 h -0.00195 C 6.6220092,14.349125 6.5018294,14.267827 6.3796875,14.145703 6.2548096,14.020789 6.1702453,13.894381 6.121875,13.766797 v -0.002 C 6.076712,13.640728 6.06341,13.513157 6.084766,13.372219 a 0.17065583,0.17065583 0 0 0 0.00195,-0.0059 C 6.10174,13.231 6.147666,13.083585 6.2312473,12.921007 c 0.00364,-0.0062 0.044556,-0.06609 0.1015625,-0.136719 0.057922,-0.07176 0.1338288,-0.162097 0.2167969,-0.257812 0.1659362,-0.191431 0.3615946,-0.409251 0.5117187,-0.576172 0.091316,-0.101601 0.1625586,-0.177514 0.2070313,-0.228516 l 0.00781,-0.0098 1.1425833,-1.142457 c 0.2208028,-0.220784 0.4267195,-0.388527 0.6191406,-0.505859 a 0.17065583,0.17065583 0 0 0 0.00195,-0.002 C 9.2335424,9.9427032 9.4107803,9.8797862 9.5710938,9.8605469 Z" />
  <path
     d="m 18.5481,19 -1.299,-2.25 h 2.598 z"
     fill="#000000"
     id="path3"
     style="fill:#ffffff" />
  <defs
     id="defs3" />
</svg>
