<svg width="20" height="20" viewBox="0 0 20 20" fill="none" xmlns="http://www.w3.org/2000/svg">
<g clip-path="url(#clip0_36_192)">
<path d="M6.90112 5.71655H5.98804V14.2834H6.90112V15.4382H4.50024V4.56177H6.90112V5.71655Z" fill="black"/>
<path d="M13.0931 4.56177H15.4994V15.4382H13.0931V14.2834H14.0116V5.71655H13.0931V4.56177Z" fill="black"/>
<path d="M10.744 11.2393H9.26162L9.16787 5.69043H10.8378L10.744 11.2393ZM9.05069 13.4248C9.05069 13.167 9.13467 12.9521 9.30264 12.7803C9.47061 12.6084 9.70303 12.5225 9.99991 12.5225C10.289 12.5225 10.5194 12.6084 10.6913 12.7803C10.8632 12.9521 10.9491 13.167 10.9491 13.4248C10.9491 13.6748 10.8632 13.8857 10.6913 14.0576C10.5194 14.2256 10.289 14.3096 9.99991 14.3096C9.70303 14.3096 9.47061 14.2256 9.30264 14.0576C9.13467 13.8857 9.05069 13.6748 9.05069 13.4248Z" fill="black"/>
<path d="M18.6018 19L17.3028 16.75L19.9008 16.75L18.6018 19Z" fill="black"/>
</g>
<defs>
<clipPath id="clip0_36_192">
<rect width="20" height="20" fill="white"/>
</clipPath>
</defs>
</svg>
