<svg width="5" height="6" viewBox="0 0 5 6" fill="none" xmlns="http://www.w3.org/2000/svg">
<path fill-rule="evenodd" clip-rule="evenodd" d="M1.57122 2.65003C1.70252 2.82786 1.70148 3.07079 1.56866 3.24748L0.101239 5.19956C-0.146489 5.52911 0.0886331 6 0.500909 6H0.522703C0.68309 6 0.833742 5.92306 0.927769 5.79312L2.00734 4.30128C2.20663 4.02588 2.61672 4.02536 2.81672 4.30024L3.90364 5.79416C3.99774 5.92349 4.14802 6 4.30796 6H4.4966C4.90916 6 5.14421 5.52853 4.8959 5.19907L3.42538 3.24789C3.29271 3.07185 3.29097 2.8297 3.42111 2.65178L4.77906 0.79518C5.02067 0.464846 4.78475 0 4.37549 0H4.35574C4.19319 0 4.04078 0.0790192 3.94711 0.211866L2.98706 1.57341C2.7881 1.85556 2.36985 1.85597 2.17035 1.5742L1.20524 0.211078C1.11151 0.0786901 0.959381 0 0.79717 0H0.605187C0.194883 0 -0.040766 0.46693 0.202957 0.797003L1.57122 2.65003Z" fill="#999999"/>
</svg>
