<?xml version="1.0" encoding="UTF-8" standalone="no"?>
<svg
   width="16"
   height="16"
   viewBox="0 0 16 16"
   fill="none"
   version="1.1"
   id="svg5"
   sodipodi:docname="codeblock_icon.svg"
   inkscape:version="1.4.3 (0d15f75042, 2025-12-25)"
   xmlns:inkscape="http://www.inkscape.org/namespaces/inkscape"
   xmlns:sodipodi="http://sodipodi.sourceforge.net/DTD/sodipodi-0.dtd"
   xmlns="http://www.w3.org/2000/svg"
   xmlns:svg="http://www.w3.org/2000/svg">
  <defs
     id="defs5">
    <inkscape:path-effect
       effect="fillet_chamfer"
       id="path-effect5"
       is_visible="true"
       lpeversion="1"
       nodesatellites_param="F,0,0,1,0,0.3,0,1 @ F,0,0,1,0,0.3,0,1 @ F,0,0,1,0,0.3,0,1 @ F,0,0,1,0,0.3,0,1 @ F,0,0,1,0,0.3,0,1 @ F,0,0,1,0,0.3,0,1 @ F,0,0,1,0,0.3,0,1 @ F,0,0,1,0,0.3,0,1 @ F,0,0,1,0,0.3,0,1 @ F,0,0,1,0,0.3,0,1 @ F,0,0,1,0,0.3,0,1 @ F,0,0,1,0,0.3,0,1"
       radius="0.3"
       unit="px"
       method="auto"
       mode="F"
       chamfer_steps="1"
       flexible="false"
       use_knot_distance="true"
       apply_no_radius="true"
       apply_with_radius="true"
       only_selected="false"
       hide_knots="false" />
    <inkscape:path-effect
       effect="fillet_chamfer"
       id="path-effect4"
       is_visible="true"
       lpeversion="1"
       nodesatellites_param="F,0,0,1,0,0.3,0,1 @ F,0,0,1,0,0.3,0,1 @ F,0,0,1,0,0.3,0,1 @ F,0,0,1,0,0.3,0,1 @ F,0,0,1,0,0.3,0,1 @ F,0,0,1,0,0.3,0,1 @ F,0,0,1,0,0.3,0,1 @ F,0,0,1,0,0.3,0,1 @ F,0,0,1,0,0.3,0,1 @ F,0,0,1,0,0.3,0,1 @ F,0,0,1,0,0.3,0,1 @ F,0,0,1,0,0.3,0,1"
       radius="0.3"
       unit="px"
       method="auto"
       mode="F"
       chamfer_steps="1"
       flexible="false"
       use_knot_distance="true"
       apply_no_radius="true"
       apply_with_radius="true"
       only_selected="false"
       hide_knots="false" />
    <inkscape:path-effect
       effect="fillet_chamfer"
       id="path-effect3"
       is_visible="true"
       lpeversion="1"
       nodesatellites_param="F,0,0,1,0,0.5,0,1 @ F,0,0,1,0,0.5,0,1 @ F,0,0,1,0,0.5,0,1 @ F,0,0,1,0,0.5,0,1 @ F,0,0,1,0,0.5,0,1 @ F,0,0,1,0,0.5,0,1"
       radius="0.5"
       unit="px"
       method="auto"
       mode="F"
       chamfer_steps="1"
       flexible="false"
       use_knot_distance="true"
       apply_no_radius="true"
       apply_with_radius="true"
       only_selected="false"
       hide_knots="false" />
    <inkscape:path-effect
       effect="fillet_chamfer"
       id="path-effect2"
       is_visible="true"
       lpeversion="1"
       nodesatellites_param="F,0,0,1,0,0.5,0,1 @ F,0,0,1,0,0.5,0,1 @ F,0,0,1,0,0.5,0,1 @ F,0,0,1,0,0.5,0,1 @ F,0,0,1,0,0.5,0,1 @ F,0,0,1,0,0.5,0,1"
       radius="0.5"
       unit="px"
       method="auto"
       mode="F"
       chamfer_steps="1"
       flexible="false"
       use_knot_distance="true"
       apply_no_radius="true"
       apply_with_radius="true"
       only_selected="false"
       hide_knots="false" />
    <inkscape:path-effect
       effect="fillet_chamfer"
       id="path-effect1"
       is_visible="true"
       lpeversion="1"
       nodesatellites_param="F,0,0,1,0,0.5,0,1 @ F,0,0,1,0,0.5,0,1 @ F,0,0,1,0,0.5,0,1 @ F,0,0,1,0,0.5,0,1"
       radius="0.5"
       unit="px"
       method="auto"
       mode="F"
       chamfer_steps="1"
       flexible="false"
       use_knot_distance="true"
       apply_no_radius="true"
       apply_with_radius="true"
       only_selected="false"
       hide_knots="false" />
  </defs>
  <sodipodi:namedview
     id="namedview5"
     pagecolor="#505050"
     bordercolor="#eeeeee"
     borderopacity="1"
     inkscape:showpageshadow="0"
     inkscape:pageopacity="0"
     inkscape:pagecheckerboard="0"
     inkscape:deskcolor="#505050"
     inkscape:zoom="51.375"
     inkscape:cx="8"
     inkscape:cy="8"
     inkscape:window-width="1920"
     inkscape:window-height="1024"
     inkscape:window-x="0"
     inkscape:window-y="0"
     inkscape:window-maximized="1"
     inkscape:current-layer="svg5" />
  <path
     d="M 2.7669456,2.9093408 C 2.7484669,2.9568095 2.75,3.1343146 2.75,3.3 V 3.7 A 0.3,0.3 135 0 1 2.45,4 H 1.55 A 0.3,0.3 45 0 1 1.25,3.7 V 3.3 C 1.25,3.1343146 1.2473326,2.8645315 1.2753671,2.7014381 1.4003722,1.9742098 1.9741565,1.4004085 2.701376,1.2753778 2.8645025,1.2473315 3.1343146,1.25 3.3,1.25 h 9.4 c 0.165685,0 0.435469,-0.00267 0.598562,0.025367 0.727228,0.1250051 1.30103,0.6987894 1.42606,1.4260089 C 14.752669,2.8645025 14.75,3.1343146 14.75,3.3 V 3.7 A 0.3,0.3 135 0 1 14.45,4 h -0.9 a 0.3,0.3 45 0 1 -0.3,-0.3 l 0,-0.4 C 13.25,3.1343146 13.235966,2.8235004 13.090666,2.7669436 13.043193,2.7484656 12.865685,2.75 12.7,2.75 H 3.3 c -0.1656854,0 -0.4764909,0.014042 -0.5330544,0.1593408 z"
     fill="#0F1621"
     id="path1"
     style="fill:#000000"
     inkscape:path-effect="#path-effect4"
     inkscape:original-d="M 3,2.75 C 2.86193,2.75 2.75,2.86193 2.75,3 V 4 H 1.25 V 3 C 1.25,2.0335 2.0335,1.25 3,1.25 h 10 c 0.9665,0 1.75,0.7835 1.75,1.75 v 1 h -1.5 V 3 C 13.25,2.86193 13.1381,2.75 13,2.75 Z" />
  <path
     d="M 6.3936675,11.333029 8.1511325,4.3031513 A 0.49999728,0.49999728 149.03637 0 1 8.7574707,3.9393502 l 0.4850686,0.1212696 a 0.50000257,0.50000257 59.036374 0 1 0.363803,0.6063415 L 7.8488777,11.696829 A 0.50000066,0.50000066 149.03619 0 1 7.2425386,12.060633 L 6.7574714,11.939367 A 0.49999949,0.49999949 59.03618 0 1 6.3936675,11.333029 Z"
     fill="#0F1621"
     id="path2"
     style="fill:#000000"
     inkscape:path-effect="#path-effect1"
     inkscape:original-d="m 6.2724,11.8181 2,-8.00002 1.45521,0.36381 -2,8.00001 z" />
  <path
     d="M 3.4142234,7.6464466 5.1767866,5.8838834 a 0.5,0.5 90 0 0 0,-0.7071068 L 4.8232334,4.8232234 a 0.50000028,0.50000028 1.6229573e-5 0 0 -0.707107,-2e-7 L 1.2928996,7.6464468 a 0.49999731,0.49999731 89.999878 0 0 1.5e-6,0.7071049 l 2.8232238,2.8231963 a 0.50001655,0.50001655 6.7235578e-4 0 0 0.7071185,9e-6 l 0.3535332,-0.353514 a 0.49998889,0.49998889 90.000984 0 0 1.22e-5,-0.707099 L 3.4142212,8.3535555 a 0.50000304,0.50000304 90.000174 0 1 2.2e-6,-0.7071089 z"
     fill="#0F1621"
     id="path3"
     style="fill:#000000"
     inkscape:path-effect="#path-effect2"
     inkscape:original-d="M 3.06067,8 5.53034,5.53033 4.46968,4.46967 0.939346,8 4.46968,11.5303 5.53034,10.4697 Z" />
  <path
     d="m 10.823248,5.8838884 1.762504,1.7625532 a 0.50001721,0.50001721 89.999826 0 1 2e-6,0.7071189 l -1.762508,1.7625785 a 0.50001012,0.50001012 89.99942 0 0 7e-6,0.707114 l 0.353494,0.353494 a 0.50000708,0.50000708 4.0573725e-4 0 0 0.707111,5e-6 l 2.823284,-2.8232036 a 0.49998796,0.49998796 90.000122 0 0 1e-6,-0.7070983 L 11.883857,4.8232199 a 0.49999081,0.49999081 179.99891 0 0 -0.7071,1.35e-5 l -0.353514,0.3535332 a 0.50002123,0.50002123 89.999596 0 0 5e-6,0.7071218 z"
     fill="#0F1621"
     id="path4"
     style="fill:#000000"
     inkscape:path-effect="#path-effect3"
     inkscape:original-d="M 10.4697,5.53033 12.9393,8 10.4697,10.4697 11.5303,11.5303 15.0607,8 11.5303,4.46967 Z" />
  <path
     d="M 13.090673,13.233058 C 13.043196,13.251535 12.865685,13.25 12.7,13.25 H 3.3 C 3.1343146,13.25 2.8235004,13.235966 2.7669436,13.090666 2.7484656,13.043193 2.75,12.865685 2.75,12.7 V 12.3 A 0.3,0.3 45 0 0 2.45,12 l -0.9,0 a 0.3,0.3 135 0 0 -0.3,0.3 v 0.4 c 0,0.165685 -0.00267,0.435469 0.025367,0.598562 0.1250051,0.727228 0.6987894,1.30103 1.4260089,1.42606 C 2.8645025,14.752669 3.1343146,14.75 3.3,14.75 h 9.4 c 0.165685,0 0.435469,0.0027 0.598562,-0.02537 0.727228,-0.125005 1.30103,-0.698789 1.42606,-1.426009 C 14.752669,13.135497 14.75,12.865685 14.75,12.7 V 12.3 A 0.3,0.3 45 0 0 14.45,12 l -0.9,0 a 0.3,0.3 135 0 0 -0.3,0.3 l 0,0.4 c 0,0.165685 -0.01403,0.476506 -0.159327,0.533058 z"
     fill="#0F1621"
     id="path5"
     style="fill:#000000"
     inkscape:path-effect="#path-effect5"
     inkscape:original-d="m 13.25,13 c 0,0.1381 -0.1119,0.25 -0.25,0.25 H 3 C 2.86193,13.25 2.75,13.1381 2.75,13 v -1 h -1.5 v 1 c 0,0.9665 0.7835,1.75 1.75,1.75 h 10 c 0.9665,0 1.75,-0.7835 1.75,-1.75 v -1 h -1.5 z" />
</svg>
