<?xml version="1.0" encoding="UTF-8" standalone="no"?>
<svg
   viewBox="0 0 24 24"
   version="1.1"
   id="svg1"
   sodipodi:docname="code-inline.svg"
   inkscape:version="1.4.3 (0d15f75042, 2025-12-25)"
   xmlns:inkscape="http://www.inkscape.org/namespaces/inkscape"
   xmlns:sodipodi="http://sodipodi.sourceforge.net/DTD/sodipodi-0.dtd"
   xmlns="http://www.w3.org/2000/svg"
   xmlns:svg="http://www.w3.org/2000/svg">
  <defs
     id="defs1" />
  <sodipodi:namedview
     id="namedview1"
     pagecolor="#505050"
     bordercolor="#eeeeee"
     borderopacity="1"
     inkscape:showpageshadow="0"
     inkscape:pageopacity="0"
     inkscape:pagecheckerboard="0"
     inkscape:deskcolor="#505050"
     inkscape:zoom="24.218407"
     inkscape:cx="5.8220179"
     inkscape:cy="9.9923995"
     inkscape:window-width="1920"
     inkscape:window-height="1024"
     inkscape:window-x="0"
     inkscape:window-y="0"
     inkscape:window-maximized="1"
     inkscape:current-layer="svg1" />
  <path
     id="path3"
     sodipodi:type="inkscape:offset"
     inkscape:radius="0.3563959"
     inkscape:original="M 13.753906 3.9980469 A 1 1 0 0 0 13.039062 4.7265625 L 9.0390625 18.726562 A 1 1 0 0 0 9.7246094 19.962891 A 1.053 1.053 0 0 0 10 20 A 1 1 0 0 0 10.960938 19.273438 L 14.960938 5.2734375 A 1 1 0 0 0 13.753906 3.9980469 z "
     d="m 13.662109,3.6542969 c -0.468102,0.1241766 -0.853462,0.5179109 -0.96875,0.9882812 L 8.6972656,18.628906 c -0.097653,0.341234 -0.054933,0.720845 0.1171875,1.03125 0.1721204,0.310406 0.4713399,0.54662 0.8125,0.644531 a 0.35643154,0.35643154 0 0 0 0.00391,0.002 c 0.1199572,0.03272 0.2448015,0.04863 0.3691406,0.04883 0.584552,-5.57e-4 1.144849,-0.4221 1.304688,-0.984375 h -0.002 L 15.300781,5.3769531 c 0.146745,-0.4596153 0.02506,-0.9932696 -0.30664,-1.34375 C 14.661082,3.6812826 14.130517,3.5303206 13.662109,3.6542969 Z" />
  <path
     id="path1"
     d="M 6.3261719,6.7871094 C 5.9023319,6.6763807 5.4231971,6.8096418 5.1191406,7.125 L 1.1230469,11.123047 C 0.8934122,11.352731 0.75976562,11.675213 0.75976562,12 c 0,0.324787 0.13364658,0.647269 0.36328128,0.876953 l 4,4 c 0.2283117,0.234006 0.5519706,0.372608 0.8789062,0.375 0.3278484,0.0024 0.6548887,-0.131451 0.8867188,-0.363281 0.23183,-0.23183 0.3656796,-0.55887 0.3632812,-0.886719 -0.00239,-0.326936 -0.1409939,-0.650594 -0.375,-0.878906 L 6.875,15.121094 3.7539063,12 6.875,8.8808594 l 0.00195,-0.00391 C 7.1901698,8.572664 7.3234135,8.096358 7.2128906,7.6738281 7.1019948,7.2498724 6.7501765,6.8978179 6.3261719,6.7871094 Z" />
  <path
     id="path4"
     d="m 17.656382,6.7871099 c 0.42384,-0.110729 0.902974,0.02253 1.207031,0.337891 l 3.996094,3.9980471 c 0.229634,0.229684 0.363281,0.552166 0.363281,0.876953 0,0.324787 -0.133647,0.647269 -0.363281,0.876953 l -4,4 c -0.228312,0.234006 -0.551971,0.372608 -0.878907,0.375 -0.327848,0.0024 -0.654888,-0.131451 -0.886718,-0.363281 -0.23183,-0.23183 -0.36568,-0.55887 -0.363282,-0.886719 0.0024,-0.326936 0.140994,-0.650594 0.375,-0.878906 l 0.002,-0.002 3.121047,-3.121047 -3.121094,-3.1191411 -0.002,-0.0039 c -0.313169,-0.304285 -0.446413,-0.780591 -0.33589,-1.203121 0.110896,-0.423956 0.462714,-0.77601 0.886719,-0.886719 z" />
</svg>
