<svg width="13" height="14" viewBox="0 0 13 14" fill="none" xmlns="http://www.w3.org/2000/svg">
<g clip-path="url(#clip0_17_14)">
<path d="M6.14844 0C2.70342 0.346586 0 3.26467 0 6.79883C0 10.5653 3.06949 13.6348 6.83593 13.6348C8.97051 13.6348 10.8817 12.6493 12.1367 11.1094C11.5653 11.2703 10.9745 11.3518 10.3809 11.3516C10.1499 11.3516 9.91909 11.3392 9.68945 11.3145C8.10349 11.1437 6.63665 10.3927 5.57091 9.20578C4.50518 8.01891 3.91577 6.47998 3.91601 4.88484C3.91606 3.85996 4.15974 2.84977 4.62695 1.93757C5.00526 1.2002 5.52179 0.542359 6.14844 0Z" fill="#666666"/>
</g>
<defs>
<clipPath id="clip0_17_14">
<rect width="12.1367" height="13.6348" fill="white"/>
</clipPath>
</defs>
</svg>
