<?xml version="1.0" encoding="UTF-8" standalone="no"?>
<svg
   width="20"
   height="20"
   viewBox="0 0 20 20"
   fill="none"
   version="1.1"
   id="svg5"
   sodipodi:docname="Image_icon.svg"
   inkscape:version="1.4.3 (0d15f75042, 2025-12-25)"
   xmlns:inkscape="http://www.inkscape.org/namespaces/inkscape"
   xmlns:sodipodi="http://sodipodi.sourceforge.net/DTD/sodipodi-0.dtd"
   xmlns="http://www.w3.org/2000/svg"
   xmlns:svg="http://www.w3.org/2000/svg">
  <sodipodi:namedview
     id="namedview5"
     pagecolor="#505050"
     bordercolor="#eeeeee"
     borderopacity="1"
     inkscape:showpageshadow="0"
     inkscape:pageopacity="0"
     inkscape:pagecheckerboard="0"
     inkscape:deskcolor="#505050"
     inkscape:zoom="42.5"
     inkscape:cx="10"
     inkscape:cy="10"
     inkscape:window-width="1920"
     inkscape:window-height="1024"
     inkscape:window-x="0"
     inkscape:window-y="0"
     inkscape:window-maximized="1"
     inkscape:current-layer="svg5" />
  <path
     id="path1"
     style="fill:#000000;stroke-width:0;stroke-dasharray:none"
     sodipodi:type="inkscape:offset"
     inkscape:radius="0.23995386"
     inkscape:original="M 5.5 2.5 C 3.84315 2.5 2.5 3.84315 2.5 5.5 L 2.5 14.5 L 2.5039062 14.654297 C 2.5816262 16.188297 3.8116631 17.418394 5.3457031 17.496094 L 5.5 17.5 L 14.5 17.5 L 14.654297 17.496094 C 16.239397 17.415794 17.5 16.1051 17.5 14.5 L 17.5 5.5 C 17.5 3.84315 16.1569 2.5 14.5 2.5 L 5.5 2.5 z M 5.5 3.5 L 14.5 3.5 C 15.6046 3.5 16.5 4.39543 16.5 5.5 L 16.5 14.5 C 16.5 15.6046 15.6046 16.5 14.5 16.5 L 5.5 16.5 C 4.39543 16.5 3.5 15.6046 3.5 14.5 L 3.5 5.5 C 3.5 4.39543 4.39543 3.5 5.5 3.5 z "
     d="m 5.5,2.2597656 c -1.7865314,0 -3.2402344,1.453703 -3.2402344,3.2402344 v 9 a 0.23997786,0.23997786 0 0 0 0,0.0059 l 0.00391,0.154297 a 0.23997786,0.23997786 0 0 0 0,0.0059 c 0.083866,1.655304 1.4149623,2.986468 3.0703125,3.070312 a 0.23997786,0.23997786 0 0 0 0.00586,0 l 0.1542969,0.0039 a 0.23997786,0.23997786 0 0 0 0.00586,0 h 9 a 0.23997786,0.23997786 0 0 0 0.0059,0 l 0.154297,-0.0039 a 0.23997786,0.23997786 0 0 0 0.0059,0 C 16.376464,17.649678 17.740234,16.230736 17.740234,14.5 v -9 c 0,-1.7865266 -1.453656,-3.2402344 -3.240234,-3.2402344 z m 0,1.4804688 h 9 c 0.974923,0 1.759766,0.7848718 1.759766,1.7597656 v 9 c 0,0.974927 -0.784839,1.759766 -1.759766,1.759766 h -9 c -0.9748938,0 -1.7597656,-0.784843 -1.7597656,-1.759766 v -9 C 3.7402344,4.5251106 4.5251106,3.7402344 5.5,3.7402344 Z"
     transform="matrix(0.8936042,0,0,0.8936042,1.0639571,1.063959)" />
  <path
     d="m 6.4932102,10.942128 c 0.3038612,-0.73767 1.3481092,-0.73767 1.6519525,0 l 1.7549135,4.260347 c 0.2268148,0.551265 -0.1389286,1.152928 -0.7094681,1.226114 l -0.116937,0.0079 v -0.8936 L 7.3187486,11.282502 5.5647019,15.542849 v 0.893604 l -0.1169371,-0.0079 C 4.9149355,16.360318 4.5606749,15.831125 4.7007653,15.312477 l 0.037531,-0.110002 z m 2.5804609,4.600721 v 0.893604 H 5.5647019 v -0.893604 z"
     fill="#000000"
     id="path2"
     style="stroke-width:0.893604" />
  <path
     d="m 10.497379,8.5330513 c 0.324557,-0.6754754 1.286433,-0.6754664 1.61099,0 l 3.255043,6.7744227 c 0.267187,0.556269 -0.09616,1.195732 -0.685037,1.273207 l -0.120458,0.0079 V 15.694936 L 11.302874,8.9196286 8.0478581,15.694936 v 0.893604 l -0.120431,-0.0079 C 7.3778516,16.508388 7.0245384,15.946847 7.1970129,15.420067 l 0.045377,-0.112593 z m 4.060538,7.1618897 v 0.893604 H 8.0478581 v -0.893604 z"
     fill="#000000"
     id="path3"
     style="stroke-width:0.893604" />
  <path
     d="m 8.9761293,7.1733018 c 0,-0.3701487 -0.3000634,-0.6702031 -0.6702031,-0.6702031 -0.3701488,0 -0.6702032,0.3000544 -0.6702032,0.6702031 0,0.3701398 0.3000544,0.6702031 0.6702032,0.6702031 v 0.8936043 c -0.8636685,0 -1.5638074,-0.7001389 -1.5638074,-1.5638074 0,-0.8636685 0.7001389,-1.5638074 1.5638074,-1.5638074 0.8636684,0 1.5637628,0.7001389 1.5637628,1.5638074 0,0.8636685 -0.7000944,1.5638074 -1.5637628,1.5638074 V 7.8435049 c 0.3701397,0 0.6702031,-0.3000633 0.6702031,-0.6702031 z"
     fill="#000000"
     id="path4"
     style="stroke-width:0.893604" />
  <path
     d="m 18.5,19 -1.299,-2.25 h 2.598 z"
     fill="#000000"
     id="path5" />
  <defs
     id="defs5" />
</svg>
