<?xml version="1.0" encoding="UTF-8" standalone="no"?>
<svg
   width="20"
   height="20"
   viewBox="0 0 20 20"
   fill="none"
   version="1.1"
   id="svg6"
   sodipodi:docname="List_icon.svg"
   inkscape:version="1.4.3 (0d15f75042, 2025-12-25)"
   xmlns:inkscape="http://www.inkscape.org/namespaces/inkscape"
   xmlns:sodipodi="http://sodipodi.sourceforge.net/DTD/sodipodi-0.dtd"
   xmlns="http://www.w3.org/2000/svg"
   xmlns:svg="http://www.w3.org/2000/svg">
  <defs
     id="defs6" />
  <sodipodi:namedview
     id="namedview6"
     pagecolor="#505050"
     bordercolor="#eeeeee"
     borderopacity="1"
     inkscape:showpageshadow="0"
     inkscape:pageopacity="0"
     inkscape:pagecheckerboard="0"
     inkscape:deskcolor="#505050"
     inkscape:zoom="38.692418"
     inkscape:cx="8.9940102"
     inkscape:cy="8.8647859"
     inkscape:window-width="1920"
     inkscape:window-height="1024"
     inkscape:window-x="0"
     inkscape:window-y="0"
     inkscape:window-maximized="1"
     inkscape:current-layer="svg6" />
  <path
     d="M15.9944 5.5378C16.4086 5.5378 16.7444 5.87358 16.7444 6.2878C16.7444 6.70201 16.4086 7.0378 15.9944 7.0378H8.43578C8.02156 7.0378 7.68578 6.70201 7.68578 6.2878C7.68578 5.87358 8.02156 5.5378 8.43578 5.5378H15.9944Z"
     fill="black"
     id="path4" />
  <path
     d="m 15.9944,9.45947 c 0.4142,0 0.75,0.33579 0.75,0.74996 0,0.4143 -0.3358,0.75 -0.75,0.75 H 8.43578 c -0.41422,0 -0.75,-0.3357 -0.75,-0.75 0,-0.41417 0.33578,-0.74996 0.75,-0.74996 z"
     fill="#000000"
     id="path5" />
  <path
     d="M15.9944 13.3811C16.4086 13.3811 16.7444 13.7169 16.7444 14.1311C16.7444 14.5453 16.4086 14.8811 15.9944 14.8811H8.43578C8.02156 14.8811 7.68578 14.5453 7.68578 14.1311C7.68578 13.7169 8.02156 13.3811 8.43578 13.3811H15.9944Z"
     fill="black"
     id="path6" />
  <circle
     style="fill:#000000;stroke-width:0;stroke-linecap:round;stroke-linejoin:round"
     id="path7"
     cx="5.750936"
     cy="6.161397"
     r="1.0340632" />
  <circle
     style="fill:#000000;stroke-width:0;stroke-linecap:round;stroke-linejoin:round"
     id="circle7"
     cx="5.750936"
     cy="10.127089"
     r="1.0340632" />
  <circle
     style="fill:#000000;stroke-width:0;stroke-linecap:round;stroke-linejoin:round"
     id="circle8"
     cx="5.750936"
     cy="14.092779"
     r="1.0340632" />
</svg>
