<?xml version="1.0" encoding="UTF-8" standalone="no"?>
<svg
   width="20"
   height="20"
   viewBox="0 0 20 20"
   fill="none"
   version="1.1"
   id="svg6"
   sodipodi:docname="lista_recolhivel.svg"
   inkscape:version="1.4.3 (0d15f75042, 2025-12-25)"
   xmlns:inkscape="http://www.inkscape.org/namespaces/inkscape"
   xmlns:sodipodi="http://sodipodi.sourceforge.net/DTD/sodipodi-0.dtd"
   xmlns="http://www.w3.org/2000/svg"
   xmlns:svg="http://www.w3.org/2000/svg">
  <defs
     id="defs6" />
  <sodipodi:namedview
     id="namedview6"
     pagecolor="#505050"
     bordercolor="#eeeeee"
     borderopacity="1"
     inkscape:showpageshadow="0"
     inkscape:pageopacity="0"
     inkscape:pagecheckerboard="0"
     inkscape:deskcolor="#505050"
     inkscape:zoom="38.692418"
     inkscape:cx="7.7276122"
     inkscape:cy="11.009909"
     inkscape:window-width="1920"
     inkscape:window-height="1024"
     inkscape:window-x="0"
     inkscape:window-y="0"
     inkscape:window-maximized="1"
     inkscape:current-layer="svg6" />
  <path
     d="m 16.257596,5.5378 c 0.268846,0 0.486804,0.33578 0.486804,0.75 0,0.41421 -0.217958,0.75 -0.486804,0.75 h -4.906094 c -0.268859,0 -0.486805,-0.33579 -0.486805,-0.75 0,-0.41422 0.217946,-0.75 0.486805,-0.75 z"
     fill="#000000"
     id="path4"
     style="stroke-width:0.805651" />
  <path
     d="m 16.257596,9.45947 c 0.268846,0 0.486804,0.33579 0.486804,0.74996 0,0.4143 -0.217958,0.75 -0.486804,0.75 h -4.906094 c -0.268859,0 -0.486805,-0.3357 -0.486805,-0.75 0,-0.41417 0.217946,-0.74996 0.486805,-0.74996 z"
     fill="#000000"
     id="path5"
     style="stroke-width:0.805651" />
  <path
     d="m 15.973003,13.3811 c 0.426017,0 0.771397,0.3358 0.771397,0.75 0,0.4142 -0.34538,0.75 -0.771397,0.75 H 8.1987298 c -0.4260381,0 -0.7713987,-0.3358 -0.7713987,-0.75 0,-0.4142 0.3453606,-0.75 0.7713987,-0.75 z"
     fill="#000000"
     id="path6"
     style="stroke-width:1.01417" />
  <path
     id="path7"
     style="fill:#000000;stroke-width:0;stroke-linecap:round;stroke-linejoin:round"
     d="M 7.46875 5.1269531 A 2.7527463 2.7527463 0 0 0 4.7167969 7.8808594 A 2.7527463 2.7527463 0 0 0 7.46875 10.632812 A 2.7527463 2.7527463 0 0 0 10.222656 7.8808594 A 2.7527463 2.7527463 0 0 0 7.46875 5.1269531 z M 5.4980469 6.671875 L 7.46875 6.671875 L 9.4414062 6.671875 L 8.4550781 8.3808594 L 7.46875 10.087891 L 6.484375 8.3808594 L 5.4980469 6.671875 z " />
</svg>
