<svg width="55" height="70" viewBox="0 0 55 70" fill="none" xmlns="http://www.w3.org/2000/svg">
<g clip-path="url(#clip0_99_168)">
<path fill-rule="evenodd" clip-rule="evenodd" d="M19.0249 -0.267822L0.00584588 17.8453L0 19.8509V61.7322L0.0107422 62.1443C0.218304 66.2345 3.49764 69.5139 7.58789 69.7214L8 69.7322H47C51.4183 69.7322 55 66.1505 55 61.7322V7.73218C55 3.3139 51.4183 -0.267822 47 -0.267822H19.0249ZM2.89809 17.8509L19.0249 2.49015V17.8509H2.89809ZM2 61.7322C2 65.0459 4.68629 67.7322 8 67.7322H47C50.3137 67.7322 53 65.0459 53 61.7322V7.73218C53 4.41847 50.3137 1.73218 47 1.73218H21.0249V19.8509H2V61.7322Z" fill="black"/>
<path d="M42.2139 32.0012C42.7659 32.0014 43.2139 32.449 43.2139 33.0012C43.2138 33.5533 42.7659 34.0009 42.2139 34.0012H24.1865C23.6343 34.0012 23.1866 33.5534 23.1865 33.0012C23.1865 32.4489 23.6342 32.0012 24.1865 32.0012H42.2139Z" fill="black"/>
<path d="M42.2134 37.9393C42.7657 37.9393 43.2134 38.387 43.2134 38.9393C43.2133 39.4916 42.7656 39.9393 42.2134 39.9393H12.7866C12.2344 39.9393 11.7867 39.4916 11.7866 38.9393C11.7866 38.387 12.2343 37.9393 12.7866 37.9393H42.2134Z" fill="black"/>
<path d="M42.2134 43.8776C42.7657 43.8776 43.2134 44.3254 43.2134 44.8776C43.2133 45.4299 42.7656 45.8776 42.2134 45.8776H12.7866C12.2344 45.8776 11.7867 45.4299 11.7866 44.8776C11.7866 44.3254 12.2343 43.8776 12.7866 43.8776H42.2134Z" fill="black"/>
<path d="M42.2134 49.8159C42.7657 49.8159 43.2134 50.2636 43.2134 50.8159C43.2133 51.3681 42.7656 51.8159 42.2134 51.8159H12.7866C12.2344 51.8159 11.7867 51.3681 11.7866 50.8159C11.7866 50.2636 12.2343 49.8159 12.7866 49.8159H42.2134Z" fill="black"/>
<path d="M14.0183 27.6027L14.6248 30.0065L15.3147 27.6027H16.8484V34.0012H15.7146V32.1071L15.7673 29.1145L14.928 31.8918H14.3171L13.5657 29.2331L13.6184 32.1071V34.0012H12.4846V27.6027H14.0183Z" fill="black"/>
<path d="M17.8811 34.0012V27.6027H19.5378C19.8337 27.6027 20.1106 27.6394 20.3684 27.7126C20.6262 27.7829 20.8606 27.884 21.0715 28.0158C21.2561 28.1242 21.4202 28.2575 21.5637 28.4157C21.7102 28.571 21.8376 28.7409 21.946 28.9255C22.072 29.1511 22.1687 29.4001 22.2361 29.6726C22.3064 29.945 22.3416 30.2351 22.3416 30.5427V31.07C22.3416 31.3659 22.3093 31.6457 22.2449 31.9094C22.1804 32.173 22.0896 32.4147 21.9724 32.6345C21.8611 32.8308 21.7307 33.0124 21.5813 33.1794C21.4319 33.3435 21.2678 33.4812 21.0891 33.5925C20.8811 33.7243 20.6511 33.8254 20.3992 33.8957C20.1501 33.966 19.8835 34.0012 19.5994 34.0012H17.8811ZM19.1248 28.6047V33.008H19.5994C19.7517 33.008 19.8938 32.989 20.0256 32.9509C20.1575 32.9128 20.2776 32.8571 20.386 32.7839C20.4973 32.7077 20.5969 32.611 20.6848 32.4938C20.7756 32.3737 20.8533 32.2346 20.9177 32.0764C20.9705 31.9387 21.01 31.7863 21.0364 31.6193C21.0657 31.4494 21.0803 31.2663 21.0803 31.07V30.5339C21.0803 30.3493 21.0657 30.175 21.0364 30.0109C21.01 29.8439 20.9705 29.6916 20.9177 29.5539C20.8533 29.3898 20.7683 29.2434 20.6628 29.1145C20.5603 28.9855 20.4402 28.8801 20.3025 28.798C20.197 28.7365 20.0798 28.6896 19.9509 28.6574C19.825 28.6223 19.6873 28.6047 19.5378 28.6047H19.1248Z" fill="black"/>
</g>
<defs>
<clipPath id="clip0_99_168">
<rect width="55" height="70" rx="8" fill="white"/>
</clipPath>
</defs>
</svg>
