<?xml version="1.0" encoding="UTF-8" standalone="no"?>
<svg
   width="20"
   height="20"
   viewBox="0 0 20 20"
   fill="none"
   version="1.1"
   id="svg6"
   sodipodi:docname="NumberedList_icon.svg"
   inkscape:version="1.4.3 (0d15f75042, 2025-12-25)"
   xmlns:inkscape="http://www.inkscape.org/namespaces/inkscape"
   xmlns:sodipodi="http://sodipodi.sourceforge.net/DTD/sodipodi-0.dtd"
   xmlns="http://www.w3.org/2000/svg"
   xmlns:svg="http://www.w3.org/2000/svg">
  <defs
     id="defs6" />
  <sodipodi:namedview
     id="namedview6"
     pagecolor="#505050"
     bordercolor="#eeeeee"
     borderopacity="1"
     inkscape:showpageshadow="0"
     inkscape:pageopacity="0"
     inkscape:pagecheckerboard="0"
     inkscape:deskcolor="#505050"
     showguides="true"
     inkscape:zoom="51.513957"
     inkscape:cx="9.667283"
     inkscape:cy="9.2790387"
     inkscape:window-width="1920"
     inkscape:window-height="1024"
     inkscape:window-x="0"
     inkscape:window-y="0"
     inkscape:window-maximized="1"
     inkscape:current-layer="svg6">
    <sodipodi:guide
       position="6.14209,4.5156"
       orientation="0,-1"
       id="guide6"
       inkscape:locked="false" />
    <sodipodi:guide
       position="6.2085,15.34375"
       orientation="0,-1"
       id="guide7"
       inkscape:locked="false" />
  </sodipodi:namedview>
  <path
     id="path1"
     style="fill:#000000;stroke-width:1.5822"
     d="m 7.0175781,4.4453125 a 0.2115947,0.2115947 0 0 0 -0.072266,0.011719 L 4.9863281,5.1640625 A 0.2115947,0.2115947 0 0 0 4.8476562,5.3632812 V 6.1113281 A 0.2115947,0.2115947 0 0 0 5.1308594,6.3105469 L 5.984375,6.0039062 V 9.15625 A 0.2115947,0.2115947 0 0 0 6.1953125,9.3671875 H 7.0644531 A 0.2115947,0.2115947 0 0 0 7.2753906,9.15625 v -4.5 A 0.2115947,0.2115947 0 0 0 7.0644531,4.4453125 Z" />
  <path
     id="path2"
     style="fill:#000000;stroke-width:1.5822"
     d="m 6.3339844,10.742188 c -0.2586065,0 -0.4997814,0.04341 -0.7207032,0.130859 -0.215083,0.08376 -0.4035062,0.201173 -0.5605468,0.353516 -0.1572102,0.150594 -0.2800977,0.329124 -0.3652344,0.529296 -0.085615,0.199668 -0.1289063,0.413227 -0.1289063,0.634766 a 0.18093221,0.18093221 0 0 0 0.1816407,0.181641 h 0.8613281 a 0.18093221,0.18093221 0 0 0 0.1816406,-0.181641 c 0,-0.105692 0.013059,-0.193815 0.037109,-0.267578 0.023755,-0.07281 0.057485,-0.12893 0.097656,-0.171875 0.037965,-0.04067 0.080208,-0.06952 0.1425782,-0.0918 a 0.18093221,0.18093221 0 0 0 0.00195,0 c 0.063574,-0.02365 0.1453655,-0.03711 0.2441406,-0.03711 0.069351,0 0.1254115,0.0099 0.1738281,0.0293 0.051764,0.02013 0.092385,0.04824 0.1269532,0.08203 0.033194,0.03664 0.061243,0.08031 0.082031,0.136719 0.019869,0.05393 0.03125,0.122946 0.03125,0.207031 0,0.04926 -0.00585,0.09833 -0.023437,0.154297 a 0.18093221,0.18093221 0 0 0 -0.00195,0.0059 c -0.015788,0.05526 -0.042757,0.119693 -0.083984,0.191406 -0.044069,0.07514 -0.1033144,0.159902 -0.1777344,0.25586 -0.073919,0.09533 -0.1683079,0.20514 -0.2792968,0.326172 l -1.4550782,1.5625 a 0.18093221,0.18093221 0 0 0 -0.048828,0.123046 v 0.587891 a 0.18093221,0.18093221 0 0 0 0.1816406,0.181641 H 7.9003906 A 0.18093221,0.18093221 0 0 0 8.0820313,15.484375 V 14.794922 A 0.18093221,0.18093221 0 0 0 7.9003906,14.613281 H 6.3457031 l 0.5566406,-0.58789 0.00195,-0.002 c 0.147463,-0.151598 0.2832039,-0.297828 0.4042968,-0.435547 0.1239535,-0.143288 0.2306985,-0.28436 0.3222657,-0.423828 a 0.18093221,0.18093221 0 0 0 0.00195,-0.002 c 0.091262,-0.142467 0.1641818,-0.287778 0.2148437,-0.4375 h -0.00195 c 0.054254,-0.155675 0.082031,-0.317403 0.082031,-0.484375 0,-0.214192 -0.034548,-0.415254 -0.1054688,-0.599609 h 0.00195 c -0.070352,-0.185283 -0.1759995,-0.34833 -0.3125,-0.482422 a 0.18093221,0.18093221 0 0 0 -0.00195,-0.002 C 7.3699298,11.021228 7.1981294,10.920549 7.0019531,10.849609 H 7 C 6.8014961,10.777489 6.5787543,10.742187 6.3339844,10.742188 Z" />
  <path
     d="m 16.133995,6.6388909 c 0.337106,0 0.610405,0.33578 0.610405,0.75 0,0.41421 -0.273299,0.75 -0.610405,0.75 H 9.9822407 c -0.3371147,0 -0.6104053,-0.33579 -0.6104053,-0.75 0,-0.41422 0.2732906,-0.75 0.6104053,-0.75 z"
     fill="#000000"
     id="path4"
     style="stroke-width:0.902149" />
  <path
     d="m 16.133995,12.762713 c 0.337106,0 0.610405,0.33579 0.610405,0.74996 0,0.4143 -0.273299,0.75 -0.610405,0.75 H 9.9822407 c -0.3371147,0 -0.6104053,-0.3357 -0.6104053,-0.75 0,-0.41417 0.2732906,-0.74996 0.6104053,-0.74996 z"
     fill="#000000"
     id="path5"
     style="stroke-width:0.902149" />
</svg>
