<?xml version="1.0" encoding="UTF-8" standalone="no"?>
<svg
   width="20"
   height="20"
   viewBox="0 0 20 20"
   fill="none"
   version="1.1"
   id="svg3"
   sodipodi:docname="Quote_icon.svg"
   inkscape:version="1.4.3 (0d15f75042, 2025-12-25)"
   xmlns:inkscape="http://www.inkscape.org/namespaces/inkscape"
   xmlns:sodipodi="http://sodipodi.sourceforge.net/DTD/sodipodi-0.dtd"
   xmlns="http://www.w3.org/2000/svg"
   xmlns:svg="http://www.w3.org/2000/svg">
  <sodipodi:namedview
     id="namedview3"
     pagecolor="#505050"
     bordercolor="#eeeeee"
     borderopacity="1"
     inkscape:showpageshadow="0"
     inkscape:pageopacity="0"
     inkscape:pagecheckerboard="0"
     inkscape:deskcolor="#505050"
     inkscape:zoom="29.062089"
     inkscape:cx="6.7097724"
     inkscape:cy="11.733499"
     inkscape:window-width="1920"
     inkscape:window-height="1024"
     inkscape:window-x="0"
     inkscape:window-y="0"
     inkscape:window-maximized="1"
     inkscape:current-layer="svg3" />
  <path
     d="m 18.5,19 -1.299,-2.25 h 2.598 z"
     fill="#000000"
     id="path3" />
  <defs
     id="defs3" />
  <path
     id="path1-5"
     style="fill:#000000;stroke-width:0.463582"
     d="m 6.1296875,6.4003906 c -0.046215,0 -0.099876,0.00318 -0.1523438,0.00586 -0.011713,5.318e-4 -0.023443,5.318e-4 -0.035156,0 -0.028485,-0.00114 -0.058766,-0.00195 -0.089844,-0.00195 -0.7118647,0 -1.3549241,0.2637441 -1.8437499,0.6972656 -6.5e-4,1.6e-6 -0.0013,1.6e-6 -0.00195,0 -6.763e-4,6.141e-4 -0.00128,0.00134 -0.00195,0.00195 -0.4646198,0.4228391 -0.7558594,1.0308605 -0.7558594,1.7109375 0,0.035713 8.982e-4,0.07037 0.00195,0.095703 4.743e-4,0.011063 4.743e-4,0.02214 0,0.033203 -0.00201,0.044478 -0.00391,0.087326 -0.00391,0.125 0,0.6607799 0.250457,1.2577403 0.65625,1.7089843 0.0027,0.0045 0.0053,0.0091 0.00781,0.01367 5.947e-4,7e-4 0.00136,0.0013 0.00195,0.002 0.3304682,0.387964 0.816831,0.637689 1.3691406,0.652344 0.2292301,0.0057 0.4034529,0.208018 0.375,0.435546 l -0.00195,0.01563 c -0.08265,0.716054 -0.3768892,1.367392 -0.8125,1.886719 l -0.00195,0.002 C 4.4947976,14.22252 4.0397258,14.562288 3.5339844,14.833984 l 1.078125,1.81836 c 0.4067953,-0.169096 0.8110744,-0.350011 1.1445312,-0.544922 0.0045,-0.0027 0.00906,-0.0053 0.013672,-0.0078 l 0.021484,-0.01172 c 0.5677594,-0.327236 1.0806194,-0.73806 1.5273437,-1.220703 3.193e-4,-3.29e-4 0.00299,-10e-4 0.00391,-0.002 0.5197737,-0.566496 0.9448539,-1.218794 1.2792969,-1.982421 l 0.00195,-0.0059 c 0.3515881,-0.846891 0.5507812,-1.769906 0.5507812,-2.742187 0,-0.06931 -4.682e-4,-0.1360059 -0.00195,-0.1894535 -6.6e-6,-0.0013 -6.6e-6,-0.00261 0,-0.00391 v -0.00586 c -1.985e-4,-0.00716 -1.985e-4,-0.014324 0,-0.021484 -0.00207,0.039367 -0.00215,0.037788 0,-0.00391 -1.48e-5,-0.00195 -1.48e-5,-0.00391 0,-0.00586 0.00283,-0.05635 0.00391,-0.1174842 0.00391,-0.1835938 0,-0.9108761 -0.328433,-1.7403824 -0.8652344,-2.3789062 C 7.750901,6.7632738 6.9856909,6.4003906 6.1296875,6.4003906 Z m 7.4554685,0 c -0.04725,0 -0.09968,0.00314 -0.152343,0.00586 -0.01171,5.319e-4 -0.02345,5.319e-4 -0.03516,0 -0.0281,-0.00114 -0.05733,-0.00195 -0.08789,-0.00195 -0.712382,0 -1.356502,0.2657285 -1.845703,0.6992187 -0.46516,0.4225112 -0.757813,1.0290193 -0.757813,1.7089844 0,0.033733 9.32e-4,0.068467 0.002,0.09375 -0.0017,0.00787 -0.0037,0.015688 -0.0059,0.023437 0.0021,0.00452 0.004,0.00908 0.0059,0.013672 -0.002,0.046046 -0.0039,0.086887 -0.0039,0.125 0,0.6600651 0.249608,1.2579973 0.654297,1.7089843 0.0027,0.0039 0.0053,0.0078 0.0078,0.01172 0.331148,0.389472 0.817815,0.641593 1.371094,0.65625 0.22923,0.0057 0.403453,0.208018 0.375,0.435546 l -0.002,0.01563 C 13.027994,12.61177 12.736032,13.263415 12.3,13.783203 l -0.002,0.002 c -0.345969,0.437646 -0.802117,0.777134 -1.308594,1.048828 l 1.080078,1.81836 c 0.406098,-0.168981 0.80928,-0.350467 1.142578,-0.544922 0.0045,-0.0027 0.0091,-0.0053 0.01367,-0.0078 l 0.02149,-0.01172 c 0.567217,-0.326923 1.080208,-0.73959 1.527343,-1.222657 3.2e-4,-3.29e-4 0.003,-10e-4 0.0039,-0.002 0.520422,-0.567199 0.94686,-1.222405 1.28125,-1.986328 0.351622,-0.846961 0.552734,-1.772176 0.552734,-2.74414 0,-0.06195 -0.0022,-0.12713 -0.0039,-0.1894536 -7e-6,-0.0013 -7e-6,-0.00261 0,-0.00391 v -0.00391 c -1.99e-4,-0.00716 -1.99e-4,-0.014324 0,-0.021484 -0.0021,0.039793 -0.0022,0.038021 0,-0.00391 -1.5e-5,-0.00195 -1.5e-5,-0.00391 0,-0.00586 0.0032,-0.06328 0.0059,-0.1249391 0.0059,-0.1835938 0,-0.9108631 -0.32832,-1.7397846 -0.865234,-2.3789062 C 15.208,6.7633759 14.44116,6.4003906 13.585156,6.4003906 Z"
     sodipodi:nodetypes="sccscccsccscccccccccccccccccsccccccscssccscscccscccccccccccccccsccccccscs" />
</svg>
