<svg width="17" height="17" viewBox="0 0 17 17" fill="none" xmlns="http://www.w3.org/2000/svg">
<g clip-path="url(#clip0_12_149)">
<path d="M15.7564 1.83083H1.3374V4.85189H15.7564V1.83083Z" fill="black"/>
<path d="M15.1313 4.10089C15.1313 2.86807 14.132 1.86858 12.8989 1.86847H4.10107C2.8681 1.86869 1.86874 2.86813 1.86865 4.10089V12.8987C1.86865 14.1316 2.86805 15.1309 4.10107 15.1312H12.8989C14.132 15.131 15.1313 14.1316 15.1313 12.8987V4.10089ZM16.6313 12.8987C16.6313 14.9602 14.9604 16.631 12.8989 16.6312H4.10107C2.03973 16.6309 0.368652 14.9601 0.368652 12.8987V4.10089C0.368741 2.03959 2.03979 0.368688 4.10107 0.368467H12.8989C14.9603 0.368584 16.6313 2.03953 16.6313 4.10089V12.8987Z" fill="url(#paint0_linear_12_149)"/>
<path d="M8.5 3.22989L8.5 15.8333Z" fill="black"/>
<path d="M9.25 3.22989L9.25 15.8334H7.75L7.75 3.22989H9.25Z" fill="black"/>
</g>
<defs>
<linearGradient id="paint0_linear_12_149" x1="0.298367" y1="8.5" x2="16.7018" y2="8.5" gradientUnits="userSpaceOnUse">
<stop/>
</linearGradient>
<clipPath id="clip0_12_149">
<rect width="17" height="17" fill="white"/>
</clipPath>
</defs>
</svg>
