<?xml version="1.0" encoding="UTF-8" standalone="no"?>
<svg
   role="img"
   focusable="false"
   aria-hidden="true"
   viewBox="0 0 14 14"
   version="1.1"
   id="svg1"
   sodipodi:docname="symbols.svg"
   inkscape:version="1.4.3 (0d15f75042, 2025-12-25)"
   xmlns:inkscape="http://www.inkscape.org/namespaces/inkscape"
   xmlns:sodipodi="http://sodipodi.sourceforge.net/DTD/sodipodi-0.dtd"
   xmlns="http://www.w3.org/2000/svg"
   xmlns:svg="http://www.w3.org/2000/svg">
  <defs
     id="defs1" />
  <sodipodi:namedview
     id="namedview1"
     pagecolor="#505050"
     bordercolor="#eeeeee"
     borderopacity="1"
     inkscape:showpageshadow="0"
     inkscape:pageopacity="0"
     inkscape:pagecheckerboard="0"
     inkscape:deskcolor="#505050"
     inkscape:zoom="42.931483"
     inkscape:cx="7.1509293"
     inkscape:cy="6.4754343"
     inkscape:window-width="1920"
     inkscape:window-height="1024"
     inkscape:window-x="0"
     inkscape:window-y="0"
     inkscape:window-maximized="1"
     inkscape:current-layer="svg1" />
  <path
     id="path5"
     sodipodi:type="inkscape:offset"
     inkscape:radius="0.25582024"
     inkscape:original="M 1.8300781 1.0996094 L 1.0625 1.8691406 L 6.2265625 6.9765625 L 1.0625 12.082031 L 1.8300781 12.853516 L 7.0058594 7.7363281 L 12.167969 12.853516 L 12.925781 12.082031 L 7.7617188 6.9765625 L 12.925781 1.8691406 L 12.167969 1.0996094 L 7.0058594 6.2167969 L 1.8300781 1.0996094 z "
     d="m 12.169922,0.84375 a 0.25584583,0.25584583 0 0 0 -0.181641,0.0742188 L 7.0058594,5.8574219 2.0097656,0.91796875 a 0.25584583,0.25584583 0 0 0 -0.3613281,0.001953 L 0.88085938,1.6894531 a 0.25584583,0.25584583 0 0 0 0.001953,0.3613282 L 5.8632812,6.9765625 0.8828125,11.900391 a 0.25584583,0.25584583 0 0 0 -0.001953,0.361328 l 0.76757812,0.771484 a 0.25584583,0.25584583 0 0 0 0.3613281,0.002 L 7.0058594,8.0957031 11.988281,13.035156 a 0.25584583,0.25584583 0 0 0 0.361328,-0.002 l 0.757813,-0.771484 a 0.25584583,0.25584583 0 0 0 -0.002,-0.361328 L 8.125,6.9765625 13.105469,2.0507813 a 0.25584583,0.25584583 0 0 0 0.002,-0.3613282 L 12.349609,0.91992188 A 0.25584583,0.25584583 0 0 0 12.169922,0.84375 Z"
     transform="matrix(0.81552391,0,0,0.81552391,1.2902518,1.2869625)" />
  <path
     d="m 6.303113,11.600591 q 0.3161142,0.288109 0.7591043,0.288182 0.4554529,0 0.7527652,-0.288182 0.297075,-0.288409 0.2973025,-0.764357 0,-0.4385 -0.3162797,-0.720499 -0.3162797,-0.2819927 -0.7338288,-0.2819763 -0.4809046,0 -0.7780416,0.2944533 -0.2973636,0.294576 -0.2972911,0.720491 0,0.463536 0.3162692,0.751888 z"
     id="path4"
     style="stroke-width:0.815524" />
  <path
     d="m 6.0754023,3.5685619 a 1.1531359,1.1531359 0 0 0 0.2340195,0.3320487 1.0742469,1.0742469 0 0 0 0.7527237,0.3069958 q 0.4679044,0 0.7591044,-0.3069958 0.2909316,-0.3069142 0.2910042,-0.7455846 0,-0.4510907 -0.3162798,-0.7518152 -0.3162797,-0.3007244 -0.7337978,-0.3007244 -0.4809046,0 -0.7780416,0.3069958 -0.2973636,0.3071589 -0.2972911,0.7455357 a 0.9572682,0.9572682 0 0 0 0.088559,0.413544 z"
     id="path3"
     style="stroke-width:0.815524" />
  <path
     d="m 2.4255357,7.7537245 q 0.2971468,0.2883937 0.7654026,0.2882225 0.4427113,0 0.7337881,-0.2882225 0.290859,-0.2881083 0.290952,-0.7518723 0,-0.4634296 -0.3036416,-0.751807 Q 3.608467,5.9618717 3.1909383,5.9618228 q -0.4809038,0 -0.7717008,0.3069876 -0.2912212,0.3072731 -0.2909937,0.7456417 0,0.4510907 0.2972919,0.7392724 z"
     id="path2"
     style="stroke-width:0.815524" />
  <path
     d="m 10.054177,7.7537245 q 0.309888,0.2883937 0.727447,0.2882225 0.480625,0 0.784339,-0.2882225 0.303715,-0.2882225 0.303632,-0.7518723 0,-0.4634296 -0.322609,-0.751807 -0.322547,-0.2881735 -0.76531,-0.2882224 -0.443001,0 -0.740086,0.3069876 -0.2974361,0.3072242 -0.2973435,0.7455927 -5.17e-5,0.4511397 0.3099305,0.7393214 z"
     id="path1"
     style="stroke-width:0.815524" />
</svg>
