<svg width="20" height="20" viewBox="0 0 20 20" fill="none" xmlns="http://www.w3.org/2000/svg">
<g clip-path="url(#clip0_36_194)">
<path fill-rule="evenodd" clip-rule="evenodd" d="M13.5069 10.6027C13.2427 10.8669 12.9778 11.0853 12.7122 11.2581C12.7356 11.1517 12.753 11.0449 12.7642 10.9379V10.9269L12.7731 10.7701C12.7819 10.4055 12.7147 10.0503 12.5757 9.70946L13.336 8.94297C13.3695 8.9094 13.5715 8.70376 13.7759 8.49557C13.9875 8.28017 14.2026 8.06117 14.2399 8.02387C14.4272 7.81624 14.5703 7.61749 14.669 7.42759C14.7703 7.24022 14.826 7.06046 14.8362 6.88828C14.8463 6.73636 14.8197 6.58825 14.7564 6.44392C14.6956 6.30213 14.6007 6.16667 14.4715 6.03754C14.3323 5.89829 14.1854 5.79954 14.031 5.74131C13.8765 5.68307 13.717 5.66535 13.5524 5.68813C13.3626 5.71092 13.1625 5.78688 12.9524 5.91601C12.7448 6.04261 12.527 6.21985 12.2991 6.44772L11.1484 7.5985C11.1092 7.64378 11.0319 7.72972 10.9362 7.83616L10.836 7.94766C10.822 7.94188 10.8081 7.9362 10.7941 7.93065C10.4071 7.77515 9.99941 7.71519 9.58288 7.75249C9.47367 7.763 9.36459 7.78007 9.25581 7.8034C9.43009 7.53887 9.6495 7.27434 9.91402 7.00982L11.2243 5.69953C11.5788 5.34505 11.932 5.07287 12.2839 4.88297C12.6409 4.69307 12.9904 4.58167 13.3322 4.54875C13.6715 4.51837 13.9981 4.56648 14.312 4.69307C14.6311 4.81967 14.9298 5.02223 15.2083 5.30074C15.4894 5.58179 15.692 5.88056 15.816 6.19706C15.9451 6.51355 15.9958 6.84271 15.9679 7.18452C15.9325 7.5238 15.8198 7.87195 15.6299 8.22895C15.4426 8.58343 15.1716 8.9379 14.8172 9.29238L13.5069 10.6027ZM8.93465 8.42168C8.84494 8.65582 8.79161 8.88655 8.77464 9.11387C8.74173 9.45569 8.78857 9.78611 8.91517 10.1051C9.0443 10.4216 9.24812 10.7191 9.52664 10.9976C9.80768 11.2787 10.1052 11.4825 10.4192 11.6091C10.7382 11.7357 11.0673 11.7813 11.4066 11.7458C11.6312 11.7273 11.8593 11.6726 12.0906 11.582C12.184 11.346 12.2425 11.114 12.2663 10.8861C12.2888 10.6094 12.2599 10.341 12.1796 10.0809C12.0388 10.2015 11.9014 10.302 11.7674 10.3824C11.5547 10.514 11.3534 10.5913 11.1635 10.6141C10.999 10.6318 10.8407 10.6128 10.6888 10.5571C10.5394 10.4989 10.3964 10.4014 10.2596 10.2646C10.1204 10.1254 10.0216 9.97854 9.9634 9.82409C9.9077 9.67217 9.8925 9.51266 9.91782 9.34555C9.93555 9.18603 9.98998 9.01766 10.0811 8.84042C10.1207 8.76665 10.2882 8.56714 10.4808 8.34714C10.2068 8.25639 9.9234 8.22414 9.63052 8.25036C9.40196 8.27237 9.17001 8.32948 8.93465 8.42168Z" fill="black"/>
<path fill-rule="evenodd" clip-rule="evenodd" d="M8.73794 15.1208C9.09495 14.9309 9.45069 14.6587 9.80516 14.3043L11.1154 12.994C11.4699 12.6395 11.7408 12.285 11.9282 11.9306C12.1181 11.5736 12.2308 11.2254 12.2663 10.8861C12.2941 10.5443 12.2434 10.2152 12.1143 9.89867C11.9902 9.58217 11.7877 9.2834 11.5066 9.00235C11.2281 8.72384 10.9294 8.52128 10.6103 8.39468C10.2964 8.26809 9.96981 8.21998 9.63052 8.25036C9.28871 8.28328 8.93923 8.39468 8.58223 8.58458C8.23028 8.77448 7.87708 9.04666 7.5226 9.40114L6.21231 10.7114C5.85784 11.0659 5.58439 11.4204 5.39196 11.7748C5.20459 12.1293 5.09825 12.4762 5.07293 12.8155C5.04002 13.1573 5.08686 13.4877 5.21346 13.8067C5.34259 14.1232 5.54641 14.4207 5.82492 14.6993C6.10597 14.9803 6.40348 15.1841 6.71744 15.3107C7.03647 15.4373 7.36562 15.4829 7.7049 15.4475C8.04165 15.4196 8.386 15.3107 8.73794 15.1208ZM10.9673 11.1292C10.8686 11.3191 10.7255 11.5179 10.5382 11.7255C10.5008 11.7628 10.285 11.9825 10.0732 12.1983C9.8687 12.4065 9.66782 12.611 9.63425 12.6446L8.73794 13.5409C8.505 13.7738 8.28092 13.9549 8.06571 14.084C7.85302 14.2157 7.65173 14.2929 7.46183 14.3157C7.29726 14.3334 7.13901 14.3144 6.98709 14.2587C6.83771 14.2005 6.69465 14.103 6.55793 13.9663C6.41867 13.827 6.31992 13.6801 6.26169 13.5257C6.20598 13.3738 6.19079 13.2143 6.21611 13.0472C6.23383 12.8876 6.28827 12.7193 6.37942 12.542C6.45045 12.4096 6.93409 11.8718 7.23448 11.5378C7.33029 11.4312 7.40746 11.3454 7.44664 11.3001L8.59742 10.1493C8.82529 9.92145 9.04304 9.74422 9.25066 9.61762C9.46082 9.48849 9.66084 9.41253 9.85074 9.38974C10.0153 9.36696 10.1748 9.38468 10.3293 9.44291C10.4837 9.50115 10.6306 9.5999 10.7698 9.73915C10.899 9.86828 10.9939 10.0037 11.0547 10.1455C11.118 10.2899 11.1446 10.438 11.1344 10.5899C11.1243 10.7621 11.0686 10.9418 10.9673 11.1292Z" fill="black"/>
<path d="M18.5481 19L17.2491 16.75L19.8471 16.75L18.5481 19Z" fill="black"/>
</g>
<defs>
<clipPath id="clip0_36_194">
<rect width="20" height="20" fill="white"/>
</clipPath>
</defs>
</svg>
