<svg width="20" height="20" viewBox="0 0 20 20" fill="none" xmlns="http://www.w3.org/2000/svg">
<path d="M6.93604 16V5.33594H10.5176C11.0986 5.33594 11.626 5.39453 12.0996 5.51172C12.5781 5.62891 12.9858 5.80713 13.3228 6.04639C13.6597 6.28564 13.9185 6.58838 14.0991 6.95459C14.2847 7.3208 14.3774 7.75293 14.3774 8.25098C14.3726 8.57324 14.314 8.87842 14.2017 9.1665C14.0942 9.44971 13.9331 9.69873 13.7183 9.91357C13.6011 10.0308 13.4668 10.1382 13.3154 10.2358C13.1689 10.3335 13.0054 10.4165 12.8247 10.4849V10.4922C13.1763 10.5898 13.4546 10.7144 13.6597 10.8657C13.8696 11.0171 14.0454 11.1929 14.187 11.3931C14.3335 11.6079 14.4409 11.8423 14.5093 12.0962C14.5825 12.3452 14.6191 12.604 14.6191 12.8726C14.6191 13.3853 14.5312 13.8369 14.3555 14.2275C14.1797 14.6182 13.9282 14.9453 13.6011 15.209C13.2739 15.4727 12.876 15.6704 12.4072 15.8022C11.9385 15.9341 11.4111 16 10.8252 16H6.93604ZM9.00146 11.2979V14.3374H10.8325C11.1011 14.3374 11.3403 14.3032 11.5503 14.2349C11.7651 14.1665 11.9434 14.0737 12.085 13.9565C12.2412 13.8247 12.3584 13.666 12.4365 13.4805C12.5195 13.2949 12.561 13.0874 12.561 12.8579C12.561 12.6187 12.5293 12.4038 12.4658 12.2134C12.4072 12.0229 12.312 11.8618 12.1802 11.73C12.0483 11.5933 11.8774 11.4883 11.6675 11.415C11.4575 11.3418 11.2085 11.3027 10.9204 11.2979H9.00146ZM9.00146 9.81104H10.5322C10.8447 9.80615 11.1206 9.76953 11.3599 9.70117C11.5991 9.62793 11.792 9.52051 11.9385 9.37891C12.0605 9.2666 12.1533 9.12988 12.2168 8.96875C12.2852 8.80762 12.3193 8.62451 12.3193 8.41943C12.3193 8.20459 12.29 8.0166 12.2314 7.85547C12.1777 7.69434 12.0947 7.56006 11.9824 7.45264C11.8359 7.30127 11.6382 7.19141 11.3892 7.12305C11.145 7.05469 10.8569 7.01807 10.5249 7.01318H9.00146V9.81104Z" fill="black"/>
</svg>
