<svg width="16" height="17" viewBox="0 0 16 17" fill="none" xmlns="http://www.w3.org/2000/svg">
<g clip-path="url(#clip0_50_29)">
<path d="M12 14.5V16.5H4V14.5H12ZM14 12.5V4.5C14 3.39543 13.1046 2.5 12 2.5H4C2.89543 2.5 2 3.39543 2 4.5V12.5C2 13.6046 2.89543 14.5 4 14.5V16.5C1.79086 16.5 0 14.7091 0 12.5V4.5C0 2.29086 1.79086 0.5 4 0.5H12C14.2091 0.5 16 2.29086 16 4.5V12.5C16 14.7091 14.2091 16.5 12 16.5V14.5C13.1046 14.5 14 13.6046 14 12.5Z" fill="#CCCCCC"/>
<path d="M8 0.5H12C14.2091 0.5 16 2.29086 16 4.5V12.5C16 14.7091 14.2091 16.5 12 16.5H8V0.5Z" fill="#CCCCCC"/>
</g>
<defs>
<clipPath id="clip0_50_29">
<rect width="16" height="17" fill="white"/>
</clipPath>
</defs>
</svg>
