<svg width="20" height="20" viewBox="0 0 20 20" fill="none" xmlns="http://www.w3.org/2000/svg">
<g clip-path="url(#clip0_37_232)">
<path d="M14.5 16.5V17.5H5.5V16.5H14.5ZM16.5 14.5V5.5C16.5 4.39543 15.6046 3.5 14.5 3.5H5.5C4.39543 3.5 3.5 4.39543 3.5 5.5V14.5C3.5 15.6046 4.39543 16.5 5.5 16.5V17.5L5.3457 17.4961C3.81166 17.4184 2.58163 16.1883 2.50391 14.6543L2.5 14.5V5.5C2.5 3.84315 3.84315 2.5 5.5 2.5H14.5C16.1569 2.5 17.5 3.84315 17.5 5.5V14.5C17.5 16.1051 16.2394 17.4158 14.6543 17.4961L14.5 17.5V16.5C15.6046 16.5 16.5 15.6046 16.5 14.5Z" fill="black"/>
<path d="M6.07568 11.0543C6.41572 10.2288 7.5843 10.2288 7.92432 11.0543L9.88818 15.8219C10.142 16.4388 9.73271 17.1121 9.09424 17.194L8.96338 17.2028V16.2028L6.99951 11.4352L5.03662 16.2028V17.2028L4.90576 17.194C4.30949 17.1176 3.91305 16.5254 4.06982 15.945L4.11182 15.8219L6.07568 11.0543ZM8.96338 16.2028V17.2028H5.03662V16.2028H8.96338Z" fill="black"/>
<path d="M10.5566 8.35839C10.9198 7.60249 11.9962 7.6025 12.3594 8.35839L16.002 15.9394C16.301 16.5619 15.8944 17.2775 15.2354 17.3642L15.1006 17.373V16.373L11.458 8.791L7.81543 16.373V17.373L7.68066 17.3642C7.06565 17.2833 6.67027 16.6549 6.86328 16.0654L6.91406 15.9394L10.5566 8.35839ZM15.1006 16.373V17.373H7.81543V16.373H15.1006Z" fill="black"/>
<path d="M9.30185 6.94865C9.30185 6.53443 8.96606 6.19865 8.55185 6.19865C8.13763 6.19865 7.80185 6.53443 7.80185 6.94865C7.80185 7.36286 8.13763 7.69865 8.55185 7.69865V8.69865C7.58535 8.69865 6.80185 7.91515 6.80185 6.94865C6.80185 5.98215 7.58535 5.19865 8.55185 5.19865C9.51835 5.19865 10.3018 5.98215 10.3018 6.94865C10.3018 7.91515 9.51835 8.69865 8.55185 8.69865V7.69865C8.96606 7.69865 9.30185 7.36286 9.30185 6.94865Z" fill="black"/>
<path d="M18.5 19L17.201 16.75L19.799 16.75L18.5 19Z" fill="black"/>
</g>
<defs>
<clipPath id="clip0_37_232">
<rect width="20" height="20" fill="white"/>
</clipPath>
</defs>
</svg>
